<svg xmlns="http://www.w3.org/2000/svg" xmlns:xlink="http://www.w3.org/1999/xlink" width="60.96mm" height="35.687mm" viewBox="4000 3420 240 140.5"><title></title><style type="text/css">
*[layerid="1"] {stroke:#000000;fill:#000000;}
*[layerid="2"] {stroke:#000000;fill:#000000;}
*[layerid="3"] {stroke:#000000;fill:#000000;}
*[layerid="4"] {stroke:#000000;fill:#000000;}
*[layerid="5"] {stroke:#000000;fill:#000000;}
*[layerid="6"] {stroke:#000000;fill:#000000;}
*[layerid="7"] {stroke:#000000;fill:#000000;}
*[layerid="8"] {stroke:#000000;fill:#000000;}
*[layerid="9"] {stroke:#000000;fill:#000000;}
*[layerid="10"] {stroke:#000000;fill:#000000;}
*[layerid="11"] {stroke:#000000;fill:#000000;}
*[layerid="12"] {stroke:#000000;fill:#000000;}
*[layerid="13"] {stroke:#000000;fill:#000000;}
*[layerid="14"] {stroke:#000000;fill:#000000;}
*[layerid="15"] {stroke:#000000;fill:#000000;}
*[layerid="19"] {stroke:#000000;fill:#000000;}
*[layerid="21"] {stroke:#000000;fill:#000000;}
*[layerid="22"] {stroke:#000000;fill:#000000;}
*[layerid="23"] {stroke:#000000;fill:#000000;}
*[layerid="24"] {stroke:#000000;fill:#000000;}
*[layerid="25"] {stroke:#000000;fill:#000000;}
*[layerid="26"] {stroke:#000000;fill:#000000;}
*[layerid="27"] {stroke:#000000;fill:#000000;}
*[layerid="28"] {stroke:#000000;fill:#000000;}
*[layerid="29"] {stroke:#000000;fill:#000000;}
*[layerid="30"] {stroke:#000000;fill:#000000;}
*[layerid="31"] {stroke:#000000;fill:#000000;}
*[layerid="32"] {stroke:#000000;fill:#000000;}
*[layerid="33"] {stroke:#000000;fill:#000000;}
*[layerid="34"] {stroke:#000000;fill:#000000;}
*[layerid="35"] {stroke:#000000;fill:#000000;}
*[layerid="36"] {stroke:#000000;fill:#000000;}
*[layerid="37"] {stroke:#000000;fill:#000000;}
*[layerid="38"] {stroke:#000000;fill:#000000;}
*[layerid="39"] {stroke:#000000;fill:#000000;}
*[layerid="40"] {stroke:#000000;fill:#000000;}
*[layerid="41"] {stroke:#000000;fill:#000000;}
*[layerid="42"] {stroke:#000000;fill:#000000;}
*[layerid="43"] {stroke:#000000;fill:#000000;}
*[layerid="44"] {stroke:#000000;fill:#000000;}
*[layerid="45"] {stroke:#000000;fill:#000000;}
*[layerid="46"] {stroke:#000000;fill:#000000;}
*[layerid="47"] {stroke:#000000;fill:#000000;}
*[layerid="48"] {stroke:#000000;fill:#000000;}
*[layerid="49"] {stroke:#000000;fill:#000000;}
*[layerid="50"] {stroke:#000000;fill:#000000;}
*[layerid="51"] {stroke:#000000;fill:#000000;}
*[layerid="52"] {stroke:#000000;fill:#000000;}
*[layerid="99"] {stroke:#000000;fill:#000000;}
*[layerid="100"] {stroke:#000000;fill:#000000;}
*[layerid="101"] {stroke:#000000;fill:#000000;}
*[layerid="Hole"] {stroke:#000000;fill:#000000;}
*[layerid="DRCError"] {stroke:#000000;fill:#000000;}
*[fill="none"] {fill: none;}
*[stroke="none"] {stroke: none;}
path, polyline, polygon, line {stroke-linecap:round;}
g[c_partid="part_pad"][layerid="1"] ellipse:not([c_etype="pad_outer"]) {fill:#000000;}
g[c_partid="part_pad"][layerid="1"] polygon:not([c_etype="pad_outer"]) {fill:#000000;}
g[c_partid="part_pad"][layerid="1"] polyline:not([c_etype="pad_outer"]) {stroke:#000000;}
g[c_partid="part_pad"][layerid="2"] ellipse:not([c_etype="pad_outer"]) {fill:#000000;}
g[c_partid="part_pad"][layerid="2"] polygon:not([c_etype="pad_outer"]) {fill:#000000;}
g[c_partid="part_pad"][layerid="2"] polyline:not([c_etype="pad_outer"]) {stroke:#000000;}
g[c_partid="part_pad"][layerid="11"] ellipse:not([c_etype="pad_outer"]) {fill:#000000;}
g[c_partid="part_pad"][layerid="11"] polygon:not([c_etype="pad_outer"]) {fill:#000000;}
g[c_partid="part_pad"][layerid="11"] polyline:not([c_etype="pad_outer"]) {stroke:#000000;}
g[c_partid="part_pad"][layerid="11"] circle {fill:#FFFFFF;}
g[c_partid="part_pad"][layerid="11"] > polyline:nth-of-type(2) {stroke:#FFFFFF;}
g[c_partid="part_pad"][layerid="11"][c_shape="ELLIPSE"]  polyline:nth-last-of-type(1) {stroke:#FFFFFF;}
g[c_partid="part_pad"][layerid="11"][c_shape="RECT"]  polyline:nth-last-of-type(1) {stroke:#FFFFFF;}
g[c_partid="part_pad"][layerid="11"][c_shape="POLYGON"]  polyline:nth-last-of-type(1) {stroke:#FFFFFF;}
g[c_partid="part_via"] > * + circle, #gCurParts g[c_partid="part_via"] > * + circle {fill:#FFFFFF;}
g[c_partid="part_pad"] > polygon[c_etype="pad_outer"], #gCurParts g[c_partid="part_pad"] > polygon[c_etype="pad_outer"] {stroke-linejoin: miter;stroke-miterlimit: 100;}
g[c_partid="part_hole"] > circle {fill: #FFFFFF;}path, polyline, polygon {stroke-linejoin:round;}
rect, circle, ellipse, polyline, line, polygon, path {shape-rendering:crispEdges;}
</style>
<rect x="4000" y="3420" width="240" height="140.5" fill="#FFFFFF" stroke="none"/><g transform="matrix(-1, 0, 0, 1, 8240, 0)"><g c_partid="part_pcbtext" c_etype="pinpart" c_origin="4159.5,3509.5" c_rotation="0" c_mirror="1" id="gge14353" locked="0" layerid="4" c_shapetype="group" ><path c_fontsize="6.692913385826771" c_fontfamily="" c_text="@TheStaticTurtle" d="M 4154.9366 3505.18 L 4155.2409 3504.5716 L 4155.8493 3504.2674 L 4156.762 3504.2674 L 4157.3704 3504.5716 L 4157.6747 3504.8758 L 4157.9789 3505.7885 L 4157.9789 3506.7011 L 4157.6747 3507.3096 L 4157.0662 3507.6138 L 4156.1535 3507.6138 L 4155.5451 3507.3096 L 4155.2409 3506.7011 M 4156.762 3504.2674 L 4157.3704 3504.8758 L 4157.6747 3505.7885 L 4157.6747 3506.7011 L 4157.3704 3507.3096 L 4157.0662 3507.6138 M 4154.9366 3504.2674 L 4155.2409 3506.7011 L 4155.2409 3507.3096 L 4154.6324 3507.6138 L 4154.024 3507.6138 L 4153.4155 3507.0054 L 4153.1113 3506.0927 L 4153.1113 3505.4843 L 4153.4155 3504.5716 L 4153.7198 3503.9631 L 4154.3282 3503.3547 L 4154.9366 3503.0505 L 4155.8493 3502.7462 L 4156.762 3502.7462 L 4157.6747 3503.0505 L 4158.2831 3503.3547 L 4158.8916 3503.9631 L 4159.1958 3504.5716 L 4159.5 3505.4843 L 4159.5 3506.3969 L 4159.1958 3507.3096 L 4158.8916 3507.918 L 4158.2831 3508.5265 L 4157.6747 3508.8307 L 4156.762 3509.1349 L 4155.8493 3509.1349 L 4154.9366 3508.8307 L 4154.3282 3508.5265 L 4154.024 3508.2223 M 4154.6324 3504.2674 L 4154.9366 3506.7011 L 4154.9366 3507.3096 L 4154.6324 3507.6138 M 4148.9739 3502.7462 L 4148.9739 3509.1349 M 4151.1034 3502.7462 L 4146.8443 3502.7462 M 4144.8364 3502.7462 L 4144.8364 3509.1349 M 4144.8364 3506.0927 L 4143.9238 3505.18 L 4143.3153 3504.8758 L 4142.4026 3504.8758 L 4141.7942 3505.18 L 4141.49 3506.0927 L 4141.49 3509.1349 M 4139.4821 3506.7011 L 4135.8314 3506.7011 L 4135.8314 3506.0927 L 4136.1356 3505.4843 L 4136.4399 3505.18 L 4137.0483 3504.8758 L 4137.961 3504.8758 L 4138.5694 3505.18 L 4139.1779 3505.7885 L 4139.4821 3506.7011 L 4139.4821 3507.3096 L 4139.1779 3508.2223 L 4138.5694 3508.8307 L 4137.961 3509.1349 L 4137.0483 3509.1349 L 4136.4399 3508.8307 L 4135.8314 3508.2223 M 4129.5644 3503.6589 L 4130.1729 3503.0505 L 4131.0855 3502.7462 L 4132.3024 3502.7462 L 4133.2151 3503.0505 L 4133.8236 3503.6589 L 4133.8236 3504.2674 L 4133.5193 3504.8758 L 4133.2151 3505.18 L 4132.6067 3505.4843 L 4130.7813 3506.0927 L 4130.1729 3506.3969 L 4129.8686 3506.7011 L 4129.5644 3507.3096 L 4129.5644 3508.2223 L 4130.1729 3508.8307 L 4131.0855 3509.1349 L 4132.3024 3509.1349 L 4133.2151 3508.8307 L 4133.8236 3508.2223 M 4126.6439 3502.7462 L 4126.6439 3507.918 L 4126.3397 3508.8307 L 4125.7312 3509.1349 L 4125.1228 3509.1349 M 4127.5565 3504.8758 L 4125.427 3504.8758 M 4119.4642 3504.8758 L 4119.4642 3509.1349 M 4119.4642 3505.7885 L 4120.0727 3505.18 L 4120.6811 3504.8758 L 4121.5938 3504.8758 L 4122.2022 3505.18 L 4122.8107 3505.7885 L 4123.1149 3506.7011 L 4123.1149 3507.3096 L 4122.8107 3508.2223 L 4122.2022 3508.8307 L 4121.5938 3509.1349 L 4120.6811 3509.1349 L 4120.0727 3508.8307 L 4119.4642 3508.2223 M 4116.5437 3502.7462 L 4116.5437 3507.918 L 4116.2394 3508.8307 L 4115.631 3509.1349 L 4115.0225 3509.1349 M 4117.4563 3504.8758 L 4115.3268 3504.8758 M 4113.0147 3502.7462 L 4112.7105 3503.0505 L 4112.4062 3502.7462 L 4112.7105 3502.442 L 4113.0147 3502.7462 M 4112.7105 3504.8758 L 4112.7105 3509.1349 M 4106.7477 3505.7885 L 4107.3561 3505.18 L 4107.9646 3504.8758 L 4108.8772 3504.8758 L 4109.4857 3505.18 L 4110.0941 3505.7885 L 4110.3984 3506.7011 L 4110.3984 3507.3096 L 4110.0941 3508.2223 L 4109.4857 3508.8307 L 4108.8772 3509.1349 L 4107.9646 3509.1349 L 4107.3561 3508.8307 L 4106.7477 3508.2223 M 4102.6102 3502.7462 L 4102.6102 3509.1349 M 4104.7398 3502.7462 L 4100.4807 3502.7462 M 4098.4728 3504.8758 L 4098.4728 3507.918 L 4098.1686 3508.8307 L 4097.5601 3509.1349 L 4096.6475 3509.1349 L 4096.039 3508.8307 L 4095.1263 3507.918 M 4095.1263 3504.8758 L 4095.1263 3509.1349 M 4093.1185 3504.8758 L 4093.1185 3509.1349 M 4093.1185 3506.7011 L 4092.8142 3505.7885 L 4092.2058 3505.18 L 4091.5974 3504.8758 L 4090.6847 3504.8758 M 4087.7641 3502.7462 L 4087.7641 3507.918 L 4087.4599 3508.8307 L 4086.8515 3509.1349 L 4086.243 3509.1349 M 4088.6768 3504.8758 L 4086.5472 3504.8758 M 4084.2351 3502.7462 L 4084.2351 3509.1349 M 4082.2273 3506.7011 L 4078.5766 3506.7011 L 4078.5766 3506.0927 L 4078.8808 3505.4843 L 4079.185 3505.18 L 4079.7935 3504.8758 L 4080.7062 3504.8758 L 4081.3146 3505.18 L 4081.923 3505.7885 L 4082.2273 3506.7011 L 4082.2273 3507.3096 L 4081.923 3508.2223 L 4081.3146 3508.8307 L 4080.7062 3509.1349 L 4079.7935 3509.1349 L 4079.185 3508.8307 L 4078.5766 3508.2223" fill="none"  stroke-width="0.8"  /></g><path d="M 4146 3462.5 C 4146.5352 3462.6443 4147.3266 3462.9809 4147.7585 3463.2478 C 4148.696 3463.8272 4150.1623 3465.4455 4150.6933 3466.4868 C 4151.7264 3468.5129 4152.4776 3472.4001 4152.0062 3473.2809 C 4151.875 3473.5261 4150.5879 3474.5686 4149.1459 3475.5976 C 4143.3089 3479.7629 4138.334 3483.597 4137.3037 3484.7243 C 4135.6797 3486.5012 4134.8722 3488.4784 4134.8799 3490.6588 C 4134.8818 3491.1882 4135.1068 3492.9467 4135.38 3494.5667 C 4135.944 3497.9115 4135.8777 3498.7968 4134.9741 3499.9814 C 4134.0258 3501.2248 4133.0215 3501.558 4130.2066 3501.5635 C 4126.9513 3501.5698 4125.8926 3501.1264 4125.0034 3499.3841 C 4124.659 3498.7095 4124.5983 3498.1082 4124.5983 3495.3733 C 4124.5983 3493.6039 4124.5261 3492.1579 4124.4379 3492.1601 C 4124.3496 3492.1622 4123.2186 3492.502 4121.9244 3492.9152 C 4118.8245 3493.9048 4115.3053 3494.5135 4111.8098 3494.6648 C 4110.2468 3494.7324 4108.9196 3494.8662 4108.8604 3494.962 C 4108.8012 3495.0578 4108.9105 3495.6789 4109.1033 3496.3422 C 4109.4013 3497.3673 4109.4133 3497.6929 4109.1836 3498.5135 C 4108.5623 3500.7323 4107.1482 3501.5571 4103.9559 3501.5623 C 4101.2332 3501.5668 4100.4447 3501.3423 4099.4964 3500.2926 C 4098.496 3499.1853 4098.2318 3498.1269 4098.4094 3495.9384 L 4098.5524 3494.1756 L 4097.4038 3493.8134 C 4095.6794 3493.2697 4088.8229 3489.8772 4088.3939 3489.3554 C 4087.9051 3488.7608 4087.9179 3487.85 4088.424 3487.2116 C 4088.6465 3486.931 4089.9926 3486.0757 4091.4154 3485.311 C 4093.7843 3484.0378 4094.0026 3483.8694 4094.0057 3483.3131 C 4094.015 3481.6325 4096.3344 3476.2324 4098.4124 3473.0534 C 4101.7714 3467.9145 4106.1959 3464.8642 4111.5705 3463.982 C 4113.4768 3463.669 4114.1339 3463.6574 4116.9275 3463.8873 C 4121.5306 3464.2661 4124.709 3465.2958 4127.807 3467.412 C 4129.1181 3468.3076 4130.9131 3470.1865 4131.8901 3471.6859 C 4132.8332 3473.1332 4132.7169 3473.2253 4133.9373 3470.0647 C 4135.055 3467.1702 4135.6404 3466.1199 4136.7602 3465.0001 C 4138.9334 3462.8269 4143.066 3461.7087 4146 3462.5" id="gge14347" stroke="none" layerid="4"></path></g><g transform="matrix(-1, 0, 0, 1, 8240, 0)"><polyline points="4020 3440 4220 3440 4220 3543 4020 3543 4020 3440" stroke-width="1"  stroke-linecap="round" fill="none" layerid="10" net="" id="gge962" locked="0" /></g></svg>