<svg xmlns="http://www.w3.org/2000/svg" xmlns:xlink="http://www.w3.org/1999/xlink" width="60.96mm" height="35.687mm" viewBox="4000 3420 240 140.5"><title></title><style type="text/css">
*[layerid="1"] {stroke:#000000;fill:#000000;}
*[layerid="2"] {stroke:#000000;fill:#000000;}
*[layerid="3"] {stroke:#000000;fill:#000000;}
*[layerid="4"] {stroke:#000000;fill:#000000;}
*[layerid="5"] {stroke:#000000;fill:#000000;}
*[layerid="6"] {stroke:#000000;fill:#000000;}
*[layerid="7"] {stroke:#000000;fill:#000000;}
*[layerid="8"] {stroke:#000000;fill:#000000;}
*[layerid="9"] {stroke:#000000;fill:#000000;}
*[layerid="10"] {stroke:#000000;fill:#000000;}
*[layerid="11"] {stroke:#000000;fill:#000000;}
*[layerid="12"] {stroke:#000000;fill:#000000;}
*[layerid="13"] {stroke:#000000;fill:#000000;}
*[layerid="14"] {stroke:#000000;fill:#000000;}
*[layerid="15"] {stroke:#000000;fill:#000000;}
*[layerid="19"] {stroke:#000000;fill:#000000;}
*[layerid="21"] {stroke:#000000;fill:#000000;}
*[layerid="22"] {stroke:#000000;fill:#000000;}
*[layerid="23"] {stroke:#000000;fill:#000000;}
*[layerid="24"] {stroke:#000000;fill:#000000;}
*[layerid="25"] {stroke:#000000;fill:#000000;}
*[layerid="26"] {stroke:#000000;fill:#000000;}
*[layerid="27"] {stroke:#000000;fill:#000000;}
*[layerid="28"] {stroke:#000000;fill:#000000;}
*[layerid="29"] {stroke:#000000;fill:#000000;}
*[layerid="30"] {stroke:#000000;fill:#000000;}
*[layerid="31"] {stroke:#000000;fill:#000000;}
*[layerid="32"] {stroke:#000000;fill:#000000;}
*[layerid="33"] {stroke:#000000;fill:#000000;}
*[layerid="34"] {stroke:#000000;fill:#000000;}
*[layerid="35"] {stroke:#000000;fill:#000000;}
*[layerid="36"] {stroke:#000000;fill:#000000;}
*[layerid="37"] {stroke:#000000;fill:#000000;}
*[layerid="38"] {stroke:#000000;fill:#000000;}
*[layerid="39"] {stroke:#000000;fill:#000000;}
*[layerid="40"] {stroke:#000000;fill:#000000;}
*[layerid="41"] {stroke:#000000;fill:#000000;}
*[layerid="42"] {stroke:#000000;fill:#000000;}
*[layerid="43"] {stroke:#000000;fill:#000000;}
*[layerid="44"] {stroke:#000000;fill:#000000;}
*[layerid="45"] {stroke:#000000;fill:#000000;}
*[layerid="46"] {stroke:#000000;fill:#000000;}
*[layerid="47"] {stroke:#000000;fill:#000000;}
*[layerid="48"] {stroke:#000000;fill:#000000;}
*[layerid="49"] {stroke:#000000;fill:#000000;}
*[layerid="50"] {stroke:#000000;fill:#000000;}
*[layerid="51"] {stroke:#000000;fill:#000000;}
*[layerid="52"] {stroke:#000000;fill:#000000;}
*[layerid="99"] {stroke:#000000;fill:#000000;}
*[layerid="100"] {stroke:#000000;fill:#000000;}
*[layerid="101"] {stroke:#000000;fill:#000000;}
*[layerid="Hole"] {stroke:#000000;fill:#000000;}
*[layerid="DRCError"] {stroke:#000000;fill:#000000;}
*[fill="none"] {fill: none;}
*[stroke="none"] {stroke: none;}
path, polyline, polygon, line {stroke-linecap:round;}
g[c_partid="part_pad"][layerid="1"] ellipse:not([c_etype="pad_outer"]) {fill:#000000;}
g[c_partid="part_pad"][layerid="1"] polygon:not([c_etype="pad_outer"]) {fill:#000000;}
g[c_partid="part_pad"][layerid="1"] polyline:not([c_etype="pad_outer"]) {stroke:#000000;}
g[c_partid="part_pad"][layerid="2"] ellipse:not([c_etype="pad_outer"]) {fill:#000000;}
g[c_partid="part_pad"][layerid="2"] polygon:not([c_etype="pad_outer"]) {fill:#000000;}
g[c_partid="part_pad"][layerid="2"] polyline:not([c_etype="pad_outer"]) {stroke:#000000;}
g[c_partid="part_pad"][layerid="11"] ellipse:not([c_etype="pad_outer"]) {fill:#000000;}
g[c_partid="part_pad"][layerid="11"] polygon:not([c_etype="pad_outer"]) {fill:#000000;}
g[c_partid="part_pad"][layerid="11"] polyline:not([c_etype="pad_outer"]) {stroke:#000000;}
g[c_partid="part_pad"][layerid="11"] circle {fill:#FFFFFF;}
g[c_partid="part_pad"][layerid="11"] > polyline:nth-of-type(2) {stroke:#FFFFFF;}
g[c_partid="part_pad"][layerid="11"][c_shape="ELLIPSE"]  polyline:nth-last-of-type(1) {stroke:#FFFFFF;}
g[c_partid="part_pad"][layerid="11"][c_shape="RECT"]  polyline:nth-last-of-type(1) {stroke:#FFFFFF;}
g[c_partid="part_pad"][layerid="11"][c_shape="POLYGON"]  polyline:nth-last-of-type(1) {stroke:#FFFFFF;}
g[c_partid="part_via"] > * + circle, #gCurParts g[c_partid="part_via"] > * + circle {fill:#FFFFFF;}
g[c_partid="part_pad"] > polygon[c_etype="pad_outer"], #gCurParts g[c_partid="part_pad"] > polygon[c_etype="pad_outer"] {stroke-linejoin: miter;stroke-miterlimit: 100;}
g[c_partid="part_hole"] > circle {fill: #FFFFFF;}path, polyline, polygon {stroke-linejoin:round;}
rect, circle, ellipse, polyline, line, polygon, path {shape-rendering:crispEdges;}
</style>
<rect x="4000" y="3420" width="240" height="140.5" fill="#FFFFFF" stroke="none"/><polyline points="4080.2756 3502.8427 4089.7244 3502.8427" stroke-width="1"  stroke-linecap="round" fill="none" layerid="3" net="" id="gge14368" locked="0" /><polyline points="4089.7244 3489.0632 4089.7244 3483.1577" stroke-width="1"  stroke-linecap="round" fill="none" layerid="3" net="" id="gge14369" locked="0" /><polyline points="4080.2756 3489.0632 4080.2756 3483.1577" stroke-width="1"  stroke-linecap="round" fill="none" layerid="3" net="" id="gge14370" locked="0" /><polyline points="4089.7244 3496.9372 4089.7244 3502.8427" stroke-width="1"  stroke-linecap="round" fill="none" layerid="3" net="" id="gge14371" locked="0" /><polyline points="4080.2756 3496.9372 4080.2756 3502.8427" stroke-width="1"  stroke-linecap="round" fill="none" layerid="3" net="" id="gge14372" locked="0" /><polyline points="4080.2756 3483.1577 4089.7244 3483.1577" stroke-width="1"  stroke-linecap="round" fill="none" layerid="3" net="" id="gge14373" locked="0" /><polyline points="4186.3427 3522.7244 4186.3427 3513.2756" stroke-width="1"  stroke-linecap="round" fill="none" layerid="3" net="" id="gge13497" locked="0" /><polyline points="4172.5632 3513.2756 4166.6577 3513.2756" stroke-width="1"  stroke-linecap="round" fill="none" layerid="3" net="" id="gge13498" locked="0" /><polyline points="4172.5632 3522.7244 4166.6577 3522.7244" stroke-width="1"  stroke-linecap="round" fill="none" layerid="3" net="" id="gge13499" locked="0" /><polyline points="4180.4372 3513.2756 4186.3427 3513.2756" stroke-width="1"  stroke-linecap="round" fill="none" layerid="3" net="" id="gge13500" locked="0" /><polyline points="4180.4372 3522.7244 4186.3427 3522.7244" stroke-width="1"  stroke-linecap="round" fill="none" layerid="3" net="" id="gge13501" locked="0" /><polyline points="4166.6577 3522.7244 4166.6577 3513.2756" stroke-width="1"  stroke-linecap="round" fill="none" layerid="3" net="" id="gge13502" locked="0" /><polyline points="4069.7756 3515.8427 4079.2244 3515.8427" stroke-width="1"  stroke-linecap="round" fill="none" layerid="3" net="" id="gge7" locked="0" /><polyline points="4079.2244 3502.0632 4079.2244 3496.1577" stroke-width="1"  stroke-linecap="round" fill="none" layerid="3" net="" id="gge8" locked="0" /><polyline points="4069.7756 3502.0632 4069.7756 3496.1577" stroke-width="1"  stroke-linecap="round" fill="none" layerid="3" net="" id="gge9" locked="0" /><polyline points="4079.2244 3509.9372 4079.2244 3515.8427" stroke-width="1"  stroke-linecap="round" fill="none" layerid="3" net="" id="gge10" locked="0" /><polyline points="4069.7756 3509.9372 4069.7756 3515.8427" stroke-width="1"  stroke-linecap="round" fill="none" layerid="3" net="" id="gge11" locked="0" /><polyline points="4069.7756 3496.1577 4079.2244 3496.1577" stroke-width="1"  stroke-linecap="round" fill="none" layerid="3" net="" id="gge12" locked="0" /><polyline points="4059.7244 3470.1573 4050.2756 3470.1573" stroke-width="1"  stroke-linecap="round" fill="none" layerid="3" net="" id="gge31" locked="0" /><polyline points="4050.2756 3483.9368 4050.2756 3489.8423" stroke-width="1"  stroke-linecap="round" fill="none" layerid="3" net="" id="gge32" locked="0" /><polyline points="4059.7244 3483.9368 4059.7244 3489.8423" stroke-width="1"  stroke-linecap="round" fill="none" layerid="3" net="" id="gge33" locked="0" /><polyline points="4050.2756 3476.0628 4050.2756 3470.1573" stroke-width="1"  stroke-linecap="round" fill="none" layerid="3" net="" id="gge34" locked="0" /><polyline points="4059.7244 3476.0628 4059.7244 3470.1573" stroke-width="1"  stroke-linecap="round" fill="none" layerid="3" net="" id="gge35" locked="0" /><polyline points="4059.7244 3489.8423 4050.2756 3489.8423" stroke-width="1"  stroke-linecap="round" fill="none" layerid="3" net="" id="gge36" locked="0" /><polyline points="4069.2244 3470.1573 4059.7756 3470.1573" stroke-width="1"  stroke-linecap="round" fill="none" layerid="3" net="" id="gge55" locked="0" /><polyline points="4059.7756 3483.9368 4059.7756 3489.8423" stroke-width="1"  stroke-linecap="round" fill="none" layerid="3" net="" id="gge56" locked="0" /><polyline points="4069.2244 3483.9368 4069.2244 3489.8423" stroke-width="1"  stroke-linecap="round" fill="none" layerid="3" net="" id="gge57" locked="0" /><polyline points="4059.7756 3476.0628 4059.7756 3470.1573" stroke-width="1"  stroke-linecap="round" fill="none" layerid="3" net="" id="gge58" locked="0" /><polyline points="4069.2244 3476.0628 4069.2244 3470.1573" stroke-width="1"  stroke-linecap="round" fill="none" layerid="3" net="" id="gge59" locked="0" /><polyline points="4069.2244 3489.8423 4059.7756 3489.8423" stroke-width="1"  stroke-linecap="round" fill="none" layerid="3" net="" id="gge60" locked="0" /><polyline points="4020.043 3523.382 4020.043 3535.193" stroke-width="1"  stroke-linecap="round" fill="none" layerid="3" net="" id="gge79" locked="0" /><polyline points="4030.28 3517.476 4036.776 3517.476 4036.776 3520.429" stroke-width="1"  stroke-linecap="round" fill="none" layerid="3" net="" id="gge80" locked="0" /><polyline points="4036.776 3538.146 4036.776 3541.098 4030.28 3541.098" stroke-width="1"  stroke-linecap="round" fill="none" layerid="3" net="" id="gge81" locked="0" /><polyline points="4219.457 3535.118 4219.457 3523.307" stroke-width="1"  stroke-linecap="round" fill="none" layerid="3" net="" id="gge119" locked="0" /><polyline points="4209.22 3541.024 4202.724 3541.024 4202.724 3538.071" stroke-width="1"  stroke-linecap="round" fill="none" layerid="3" net="" id="gge120" locked="0" /><polyline points="4202.724 3520.354 4202.724 3517.402 4209.22 3517.402" stroke-width="1"  stroke-linecap="round" fill="none" layerid="3" net="" id="gge121" locked="0" /><polyline points="4092.4409 3478.3701 4092.4409 3499.6299 4147.5591 3499.6299 4147.5591 3478.3701 4092.4409 3478.3701" stroke-width="1"  stroke-linecap="round" fill="none" layerid="3" net="" id="gge161" locked="0" /><polyline points="4030 3515 4020 3515 4020 3505 4030 3505 4030 3512.5" stroke-width="0.8"  stroke-linecap="round" fill="none" layerid="3" net="" id="gge448" locked="0" /><polyline points="4030 3515 4030 3512.5" stroke-width="0.79921"  stroke-linecap="round" fill="none" layerid="3" net="" id="gge449" locked="0" /><polyline points="4220 3515 4210 3515 4210 3505 4220 3505 4220 3512.5" stroke-width="0.8"  stroke-linecap="round" fill="none" layerid="3" net="" id="gge463" locked="0" /><polyline points="4220 3515 4220 3512.5" stroke-width="0.79921"  stroke-linecap="round" fill="none" layerid="3" net="" id="gge464" locked="0" /><polyline points="4183.6181 3473.752 4170 3473.6889" stroke-width="0.8"  stroke-linecap="round" fill="none" layerid="3" net="" id="gge478" locked="0" /><polyline points="4170 3481.6889 4183.6181 3481.626" stroke-width="0.8"  stroke-linecap="round" fill="none" layerid="3" net="" id="gge479" locked="0" /><polyline points="4183.6181 3485.563 4170 3485.5" stroke-width="0.8"  stroke-linecap="round" fill="none" layerid="3" net="" id="gge480" locked="0" /><polyline points="4170 3493.5 4183.6181 3493.437" stroke-width="0.8"  stroke-linecap="round" fill="none" layerid="3" net="" id="gge481" locked="0" /><polyline points="4184.4055 3498.1615 4184.4055 3504.1615" stroke-width="0.8"  stroke-linecap="round" fill="none" layerid="3" net="" id="gge482" locked="0" /><polyline points="4183.2244 3497.374 4170 3497.311" stroke-width="0.8"  stroke-linecap="round" fill="none" layerid="3" net="" id="gge483" locked="0" /><polyline points="4170 3505.311 4183.6181 3505.248" stroke-width="0.8"  stroke-linecap="round" fill="none" layerid="3" net="" id="gge484" locked="0" /><polyline points="4184.4055 3486.3504 4184.4055 3492.3504" stroke-width="0.8"  stroke-linecap="round" fill="none" layerid="3" net="" id="gge485" locked="0" /><polyline points="4184.4055 3474.5394 4184.4055 3480.5394" stroke-width="0.8"  stroke-linecap="round" fill="none" layerid="3" net="" id="gge486" locked="0" /><polyline points="4169 3498.311 4169 3504.311" stroke-width="0.8"  stroke-linecap="round" fill="none" layerid="3" net="" id="gge487" locked="0" /><polyline points="4169 3474.6889 4169 3480.6889" stroke-width="0.8"  stroke-linecap="round" fill="none" layerid="3" net="" id="gge488" locked="0" /><polyline points="4169 3486.5 4169 3492.5" stroke-width="0.8"  stroke-linecap="round" fill="none" layerid="3" net="" id="gge489" locked="0" /><polyline points="4055.5 3515 4055.5 3502.5" stroke-width="0.79921"  stroke-linecap="round" fill="none" layerid="3" net="" id="gge568" locked="0" /><polyline points="4055.5 3515 4045.5 3515 4045.5 3495 4055.5 3495 4055.5 3502.5" stroke-width="0.8"  stroke-linecap="round" fill="none" layerid="3" net="" id="gge569" locked="0" /><polyline points="4079.2244 3490.0429 4079.2244 3496.342" stroke-width="1"  stroke-linecap="round" fill="none" layerid="3" net="" id="gge588" locked="0" /><polyline points="4069.7756 3490.0429 4069.7756 3496.342" stroke-width="1"  stroke-linecap="round" fill="none" layerid="3" net="" id="gge589" locked="0" /><polyline points="4079.2244 3482.9562 4079.2244 3477.0507" stroke-width="1"  stroke-linecap="round" fill="none" layerid="3" net="" id="gge590" locked="0" /><polyline points="4069.7756 3482.9562 4069.7756 3477.0507" stroke-width="1"  stroke-linecap="round" fill="none" layerid="3" net="" id="gge591" locked="0" /><polyline points="4079.2244 3496.342 4069.7756 3496.342" stroke-width="1"  stroke-linecap="round" fill="none" layerid="3" net="" id="gge592" locked="0" /><polyline points="4077.2559 3475.476 4071.7441 3475.4759" stroke-width="1"  stroke-linecap="round" fill="none" layerid="3" net="" id="gge593" locked="0" /><polyline points="4077.2559 3475.476 4077.6497 3475.476 4079.2244 3477.0507" stroke-width="1"  stroke-linecap="round" fill="none" layerid="3" net="" id="gge594" locked="0" /><polyline points="4071.7441 3475.4759 4071.3504 3475.4759 4069.7756 3477.0507" stroke-width="1"  stroke-linecap="round" fill="none" layerid="3" net="" id="gge595" locked="0" /><polyline points="4020 3465 4030 3465 4030 3505 4020 3505 4020 3497.5" stroke-width="0.8"  stroke-linecap="round" fill="none" layerid="3" net="" id="gge616" locked="0" /><polyline points="4020 3465 4020 3497.5" stroke-width="0.79921"  stroke-linecap="round" fill="none" layerid="3" net="" id="gge617" locked="0" /><polyline points="4210 3465 4220 3465 4220 3505 4210 3505 4210 3497.5" stroke-width="0.8"  stroke-linecap="round" fill="none" layerid="3" net="" id="gge646" locked="0" /><polyline points="4210 3465 4210 3497.5" stroke-width="0.79921"  stroke-linecap="round" fill="none" layerid="3" net="" id="gge647" locked="0" /><polyline points="4020 3440 4020 3460 4220 3460 4220 3440 4020 3440" stroke-width="0.8"  stroke-linecap="round" fill="none" layerid="3" net="" id="gge676" locked="0" /><g c_partid="part_pcbtext" c_etype="pinpart" c_origin="4140,3533.5" c_rotation="0" c_mirror="0" id="gge13860" locked="0" layerid="3" c_shapetype="group" ><path c_fontsize="6.299212598425197" c_fontfamily="" c_text="V1.1" d="M 4140 3527.14 L 4142.29 3533.16 M 4144.58 3527.14 L 4142.29 3533.16 M 4146.47 3528.29 L 4147.04 3528 L 4147.9 3527.14 L 4147.9 3533.16 M 4150.08 3531.72 L 4149.79 3532.01 L 4150.08 3532.3 L 4150.37 3532.01 L 4150.08 3531.72 M 4152.25 3528.29 L 4152.83 3528 L 4153.69 3527.14 L 4153.69 3533.16" fill="none"  stroke-width="0.8"  /></g><g c_partid="part_pcbtext" c_etype="pinpart" c_origin="4086.5,3533" c_rotation="0" c_mirror="0" id="gge13840" locked="0" layerid="3" c_shapetype="group" ><path c_fontsize="4.724409448818897" c_fontfamily="" c_text="TheStaticTurtle" d="M 4088 3528.23 L 4088 3532.74 M 4086.5 3528.23 L 4089.51 3528.23 M 4090.92 3528.23 L 4090.92 3532.74 M 4090.92 3530.59 L 4091.57 3529.95 L 4092 3529.74 L 4092.64 3529.74 L 4093.07 3529.95 L 4093.29 3530.59 L 4093.29 3532.74 M 4094.7 3531.02 L 4097.28 3531.02 L 4097.28 3530.59 L 4097.07 3530.17 L 4096.85 3529.95 L 4096.42 3529.74 L 4095.78 3529.74 L 4095.35 3529.95 L 4094.92 3530.38 L 4094.7 3531.02 L 4094.7 3531.45 L 4094.92 3532.1 L 4095.35 3532.53 L 4095.78 3532.74 L 4096.42 3532.74 L 4096.85 3532.53 L 4097.28 3532.1 M 4101.7 3528.88 L 4101.27 3528.45 L 4100.63 3528.23 L 4099.77 3528.23 L 4099.13 3528.45 L 4098.7 3528.88 L 4098.7 3529.31 L 4098.91 3529.74 L 4099.13 3529.95 L 4099.56 3530.17 L 4100.85 3530.59 L 4101.27 3530.81 L 4101.49 3531.02 L 4101.7 3531.45 L 4101.7 3532.1 L 4101.27 3532.53 L 4100.63 3532.74 L 4099.77 3532.74 L 4099.13 3532.53 L 4098.7 3532.1 M 4103.77 3528.23 L 4103.77 3531.88 L 4103.98 3532.53 L 4104.41 3532.74 L 4104.84 3532.74 M 4103.12 3529.74 L 4104.62 3529.74 M 4108.83 3529.74 L 4108.83 3532.74 M 4108.83 3530.38 L 4108.4 3529.95 L 4107.97 3529.74 L 4107.33 3529.74 L 4106.9 3529.95 L 4106.47 3530.38 L 4106.26 3531.02 L 4106.26 3531.45 L 4106.47 3532.1 L 4106.9 3532.53 L 4107.33 3532.74 L 4107.97 3532.74 L 4108.4 3532.53 L 4108.83 3532.1 M 4110.9 3528.23 L 4110.9 3531.88 L 4111.11 3532.53 L 4111.54 3532.74 L 4111.97 3532.74 M 4110.25 3529.74 L 4111.75 3529.74 M 4113.39 3528.23 L 4113.6 3528.45 L 4113.82 3528.23 L 4113.6 3528.02 L 4113.39 3528.23 M 4113.6 3529.74 L 4113.6 3532.74 M 4117.81 3530.38 L 4117.38 3529.95 L 4116.95 3529.74 L 4116.31 3529.74 L 4115.88 3529.95 L 4115.45 3530.38 L 4115.23 3531.02 L 4115.23 3531.45 L 4115.45 3532.1 L 4115.88 3532.53 L 4116.31 3532.74 L 4116.95 3532.74 L 4117.38 3532.53 L 4117.81 3532.1 M 4120.73 3528.23 L 4120.73 3532.74 M 4119.23 3528.23 L 4122.23 3528.23 M 4123.65 3529.74 L 4123.65 3531.88 L 4123.87 3532.53 L 4124.3 3532.74 L 4124.94 3532.74 L 4125.37 3532.53 L 4126.01 3531.88 M 4126.01 3529.74 L 4126.01 3532.74 M 4127.43 3529.74 L 4127.43 3532.74 M 4127.43 3531.02 L 4127.65 3530.38 L 4128.07 3529.95 L 4128.5 3529.74 L 4129.15 3529.74 M 4131.21 3528.23 L 4131.21 3531.88 L 4131.42 3532.53 L 4131.85 3532.74 L 4132.28 3532.74 M 4130.57 3529.74 L 4132.07 3529.74 M 4133.7 3528.23 L 4133.7 3532.74 M 4135.12 3531.02 L 4137.7 3531.02 L 4137.7 3530.59 L 4137.48 3530.17 L 4137.27 3529.95 L 4136.84 3529.74 L 4136.19 3529.74 L 4135.76 3529.95 L 4135.33 3530.38 L 4135.12 3531.02 L 4135.12 3531.45 L 4135.33 3532.1 L 4135.76 3532.53 L 4136.19 3532.74 L 4136.84 3532.74 L 4137.27 3532.53 L 4137.7 3532.1" fill="none"  stroke-width="0.4724"  /></g><g c_partid="part_pcbtext" c_etype="pinpart" c_origin="4084.5,3525" c_rotation="0" c_mirror="0" id="gge13832" locked="0" layerid="3" c_shapetype="group" ><path c_fontsize="6.692913385826771" c_fontfamily="" c_text="FourtyPinyGPIO" d="M 4084.5 3518.25 L 4084.5 3524.63 M 4084.5 3518.25 L 4088.45 3518.25 M 4084.5 3521.29 L 4086.93 3521.29 M 4091.98 3520.38 L 4091.38 3520.68 L 4090.77 3521.29 L 4090.46 3522.2 L 4090.46 3522.81 L 4090.77 3523.72 L 4091.38 3524.33 L 4091.98 3524.63 L 4092.9 3524.63 L 4093.51 3524.33 L 4094.11 3523.72 L 4094.42 3522.81 L 4094.42 3522.2 L 4094.11 3521.29 L 4093.51 3520.68 L 4092.9 3520.38 L 4091.98 3520.38 M 4096.43 3520.38 L 4096.43 3523.42 L 4096.73 3524.33 L 4097.34 3524.63 L 4098.25 3524.63 L 4098.86 3524.33 L 4099.77 3523.42 M 4099.77 3520.38 L 4099.77 3524.63 M 4101.78 3520.38 L 4101.78 3524.63 M 4101.78 3522.2 L 4102.08 3521.29 L 4102.69 3520.68 L 4103.3 3520.38 L 4104.21 3520.38 M 4107.13 3518.25 L 4107.13 3523.42 L 4107.44 3524.33 L 4108.05 3524.63 L 4108.66 3524.63 M 4106.22 3520.38 L 4108.35 3520.38 M 4110.97 3520.38 L 4112.79 3524.63 M 4114.62 3520.38 L 4112.79 3524.63 L 4112.18 3525.85 L 4111.58 3526.46 L 4110.97 3526.76 L 4110.66 3526.76 M 4116.63 3518.25 L 4116.63 3524.63 M 4116.63 3518.25 L 4119.36 3518.25 L 4120.28 3518.55 L 4120.58 3518.85 L 4120.89 3519.46 L 4120.89 3520.38 L 4120.58 3520.98 L 4120.28 3521.29 L 4119.36 3521.59 L 4116.63 3521.59 M 4122.89 3518.25 L 4123.2 3518.55 L 4123.5 3518.25 L 4123.2 3517.94 L 4122.89 3518.25 M 4123.2 3520.38 L 4123.2 3524.63 M 4125.51 3520.38 L 4125.51 3524.63 M 4125.51 3521.59 L 4126.42 3520.68 L 4127.03 3520.38 L 4127.94 3520.38 L 4128.55 3520.68 L 4128.86 3521.59 L 4128.86 3524.63 M 4131.17 3520.38 L 4132.99 3524.63 M 4134.82 3520.38 L 4132.99 3524.63 L 4132.38 3525.85 L 4131.78 3526.46 L 4131.17 3526.76 L 4130.86 3526.76 M 4141.39 3519.77 L 4141.09 3519.16 L 4140.48 3518.55 L 4139.87 3518.25 L 4138.65 3518.25 L 4138.04 3518.55 L 4137.43 3519.16 L 4137.13 3519.77 L 4136.83 3520.68 L 4136.83 3522.2 L 4137.13 3523.11 L 4137.43 3523.72 L 4138.04 3524.33 L 4138.65 3524.63 L 4139.87 3524.63 L 4140.48 3524.33 L 4141.09 3523.72 L 4141.39 3523.11 L 4141.39 3522.2 M 4139.87 3522.2 L 4141.39 3522.2 M 4143.4 3518.25 L 4143.4 3524.63 M 4143.4 3518.25 L 4146.14 3518.25 L 4147.05 3518.55 L 4147.35 3518.85 L 4147.66 3519.46 L 4147.66 3520.38 L 4147.35 3520.98 L 4147.05 3521.29 L 4146.14 3521.59 L 4143.4 3521.59 M 4149.66 3518.25 L 4149.66 3524.63 M 4153.5 3518.25 L 4152.89 3518.55 L 4152.28 3519.16 L 4151.98 3519.77 L 4151.67 3520.68 L 4151.67 3522.2 L 4151.98 3523.11 L 4152.28 3523.72 L 4152.89 3524.33 L 4153.5 3524.63 L 4154.71 3524.63 L 4155.32 3524.33 L 4155.93 3523.72 L 4156.24 3523.11 L 4156.54 3522.2 L 4156.54 3520.68 L 4156.24 3519.77 L 4155.93 3519.16 L 4155.32 3518.55 L 4154.71 3518.25 L 4153.5 3518.25" fill="none"  stroke-width="0.8"  /></g><g c_partid="part_pcbtext" c_etype="pinpart" c_origin="4159,3531.5" c_rotation="0" c_mirror="0" id="gge13828" locked="0" layerid="3" c_shapetype="group" ><path c_fontsize="4.724409448818897" c_fontfamily="" c_text="VCC" d="M 4159 3526.73 L 4160.72 3531.24 M 4162.44 3526.73 L 4160.72 3531.24 M 4167.07 3527.81 L 4166.86 3527.38 L 4166.43 3526.95 L 4166 3526.73 L 4165.14 3526.73 L 4164.71 3526.95 L 4164.28 3527.38 L 4164.07 3527.81 L 4163.85 3528.45 L 4163.85 3529.52 L 4164.07 3530.17 L 4164.28 3530.6 L 4164.71 3531.03 L 4165.14 3531.24 L 4166 3531.24 L 4166.43 3531.03 L 4166.86 3530.6 L 4167.07 3530.17 M 4171.71 3527.81 L 4171.5 3527.38 L 4171.07 3526.95 L 4170.64 3526.73 L 4169.78 3526.73 L 4169.35 3526.95 L 4168.92 3527.38 L 4168.71 3527.81 L 4168.49 3528.45 L 4168.49 3529.52 L 4168.71 3530.17 L 4168.92 3530.6 L 4169.35 3531.03 L 4169.78 3531.24 L 4170.64 3531.24 L 4171.07 3531.03 L 4171.5 3530.6 L 4171.71 3530.17" fill="none"  stroke-width="0.8"  /></g><g c_partid="part_pcbtext" c_etype="pinpart" c_origin="4068.5,3531.5" c_rotation="0" c_mirror="0" id="gge13824" locked="0" layerid="3" c_shapetype="group" ><path c_fontsize="4.724409448818897" c_fontfamily="" c_text="GND" d="M 4071.72 3527.81 L 4071.51 3527.38 L 4071.08 3526.95 L 4070.65 3526.73 L 4069.79 3526.73 L 4069.36 3526.95 L 4068.93 3527.38 L 4068.71 3527.81 L 4068.5 3528.45 L 4068.5 3529.52 L 4068.71 3530.17 L 4068.93 3530.6 L 4069.36 3531.03 L 4069.79 3531.24 L 4070.65 3531.24 L 4071.08 3531.03 L 4071.51 3530.6 L 4071.72 3530.17 L 4071.72 3529.52 M 4070.65 3529.52 L 4071.72 3529.52 M 4073.14 3526.73 L 4073.14 3531.24 M 4073.14 3526.73 L 4076.14 3531.24 M 4076.14 3526.73 L 4076.14 3531.24 M 4077.56 3526.73 L 4077.56 3531.24 M 4077.56 3526.73 L 4079.07 3526.73 L 4079.71 3526.95 L 4080.14 3527.38 L 4080.35 3527.81 L 4080.57 3528.45 L 4080.57 3529.52 L 4080.35 3530.17 L 4080.14 3530.6 L 4079.71 3531.03 L 4079.07 3531.24 L 4077.56 3531.24" fill="none"  stroke-width="0.8"  /></g><g c_partid="part_pcbtext" c_etype="pinpart" c_origin="4057.5,3513" c_rotation="0" c_mirror="0" id="gge13332" locked="0" layerid="3" c_shapetype="group" ><path c_fontsize="4.724409448818897" c_fontfamily="" c_text="INT" d="M 4057.5 3508.23 L 4057.5 3512.74 M 4058.92 3508.23 L 4058.92 3512.74 M 4058.92 3508.23 L 4061.92 3512.74 M 4061.92 3508.23 L 4061.92 3512.74 M 4064.84 3508.23 L 4064.84 3512.74 M 4063.34 3508.23 L 4066.35 3508.23" fill="none"  stroke-width="0.8"  /></g><g c_partid="part_pcbtext" c_etype="pinpart" c_origin="4057.5,3502.5" c_rotation="0" c_mirror="0" id="gge13331" locked="0" layerid="3" c_shapetype="group" ><path c_fontsize="4.724409448818897" c_fontfamily="" c_text="OE" d="M 4058.79 3497.7321 L 4058.36 3497.9521 L 4057.93 3498.3721 L 4057.71 3498.8021 L 4057.5 3499.4521 L 4057.5 3500.5221 L 4057.71 3501.1721 L 4057.93 3501.6021 L 4058.36 3502.0321 L 4058.79 3502.2421 L 4059.65 3502.2421 L 4060.08 3502.0321 L 4060.51 3501.6021 L 4060.72 3501.1721 L 4060.94 3500.5221 L 4060.94 3499.4521 L 4060.72 3498.8021 L 4060.51 3498.3721 L 4060.08 3497.9521 L 4059.65 3497.7321 L 4058.79 3497.7321 M 4062.35 3497.7321 L 4062.35 3502.2421 M 4062.35 3497.7321 L 4065.14 3497.7321 M 4062.35 3499.8821 L 4064.07 3499.8821 M 4062.35 3502.2421 L 4065.14 3502.2421" fill="none"  stroke-width="0.8"  /></g><g c_partid="part_pcbtext" c_etype="pinpart" c_origin="4050.5,3482.5" c_rotation="0" c_mirror="0" id="gge13290" locked="0" layerid="3" c_shapetype="group" ><path c_fontsize="4.724409448818897" c_fontfamily="" c_text="I2CPU" d="M 4050.5 3477.73 L 4050.5 3482.24 M 4052.13 3478.81 L 4052.13 3478.59 L 4052.35 3478.16 L 4052.56 3477.95 L 4052.99 3477.73 L 4053.85 3477.73 L 4054.28 3477.95 L 4054.49 3478.16 L 4054.71 3478.59 L 4054.71 3479.02 L 4054.49 3479.45 L 4054.06 3480.09 L 4051.92 3482.24 L 4054.92 3482.24 M 4059.56 3478.81 L 4059.35 3478.38 L 4058.92 3477.95 L 4058.49 3477.73 L 4057.63 3477.73 L 4057.2 3477.95 L 4056.77 3478.38 L 4056.56 3478.81 L 4056.34 3479.45 L 4056.34 3480.52 L 4056.56 3481.17 L 4056.77 3481.6 L 4057.2 3482.03 L 4057.63 3482.24 L 4058.49 3482.24 L 4058.92 3482.03 L 4059.35 3481.6 L 4059.56 3481.17 M 4060.98 3477.73 L 4060.98 3482.24 M 4060.98 3477.73 L 4062.91 3477.73 L 4063.56 3477.95 L 4063.77 3478.16 L 4063.99 3478.59 L 4063.99 3479.24 L 4063.77 3479.67 L 4063.56 3479.88 L 4062.91 3480.09 L 4060.98 3480.09 M 4065.4 3477.73 L 4065.4 3480.95 L 4065.62 3481.6 L 4066.05 3482.03 L 4066.69 3482.24 L 4067.12 3482.24 L 4067.77 3482.03 L 4068.2 3481.6 L 4068.41 3480.95 L 4068.41 3477.73" fill="none"  stroke-width="0.8"  /></g><g c_partid="part_pcbtext" c_etype="pinpart" c_origin="4196,3512.5" c_rotation="0" c_mirror="0" id="gge1030" locked="0" layerid="3" c_shapetype="group" ><path c_fontsize="4.724409448818897" c_fontfamily="" c_text="RST" d="M 4196 3507.73 L 4196 3512.24 M 4196 3507.73 L 4197.93 3507.73 L 4198.58 3507.95 L 4198.79 3508.16 L 4199.01 3508.59 L 4199.01 3509.02 L 4198.79 3509.45 L 4198.58 3509.67 L 4197.93 3509.88 L 4196 3509.88 M 4197.5 3509.88 L 4199.01 3512.24 M 4203.43 3508.38 L 4203 3507.95 L 4202.36 3507.73 L 4201.5 3507.73 L 4200.85 3507.95 L 4200.42 3508.38 L 4200.42 3508.81 L 4200.64 3509.24 L 4200.85 3509.45 L 4201.28 3509.67 L 4202.57 3510.09 L 4203 3510.31 L 4203.22 3510.52 L 4203.43 3510.95 L 4203.43 3511.6 L 4203 3512.03 L 4202.36 3512.24 L 4201.5 3512.24 L 4200.85 3512.03 L 4200.42 3511.6 M 4206.35 3507.73 L 4206.35 3512.24 M 4204.85 3507.73 L 4207.85 3507.73" fill="none"  stroke-width="0.8"  /></g><g c_partid="part_pcbtext" c_etype="pinpart" c_origin="4032.5,3513" c_rotation="0" c_mirror="0" id="gge1026" locked="0" layerid="3" c_shapetype="group" ><path c_fontsize="4.724409448818897" c_fontfamily="" c_text="RST" d="M 4032.5 3508.23 L 4032.5 3512.74 M 4032.5 3508.23 L 4034.43 3508.23 L 4035.08 3508.45 L 4035.29 3508.66 L 4035.51 3509.09 L 4035.51 3509.52 L 4035.29 3509.95 L 4035.08 3510.17 L 4034.43 3510.38 L 4032.5 3510.38 M 4034 3510.38 L 4035.51 3512.74 M 4039.93 3508.88 L 4039.5 3508.45 L 4038.86 3508.23 L 4038 3508.23 L 4037.35 3508.45 L 4036.92 3508.88 L 4036.92 3509.31 L 4037.14 3509.74 L 4037.35 3509.95 L 4037.78 3510.17 L 4039.07 3510.59 L 4039.5 3510.81 L 4039.72 3511.02 L 4039.93 3511.45 L 4039.93 3512.1 L 4039.5 3512.53 L 4038.86 3512.74 L 4038 3512.74 L 4037.35 3512.53 L 4036.92 3512.1 M 4042.85 3508.23 L 4042.85 3512.74 M 4041.35 3508.23 L 4044.35 3508.23" fill="none"  stroke-width="0.8"  /></g><g c_partid="part_pcbtext" c_etype="pinpart" c_origin="4195.5,3502.5" c_rotation="0" c_mirror="0" id="gge1022" locked="0" layerid="3" c_shapetype="group" ><path c_fontsize="4.724409448818897" c_fontfamily="" c_text="GND" d="M 4198.72 3498.81 L 4198.51 3498.38 L 4198.08 3497.95 L 4197.65 3497.73 L 4196.79 3497.73 L 4196.36 3497.95 L 4195.93 3498.38 L 4195.71 3498.81 L 4195.5 3499.45 L 4195.5 3500.52 L 4195.71 3501.17 L 4195.93 3501.6 L 4196.36 3502.03 L 4196.79 3502.24 L 4197.65 3502.24 L 4198.08 3502.03 L 4198.51 3501.6 L 4198.72 3501.17 L 4198.72 3500.52 M 4197.65 3500.52 L 4198.72 3500.52 M 4200.14 3497.73 L 4200.14 3502.24 M 4200.14 3497.73 L 4203.14 3502.24 M 4203.14 3497.73 L 4203.14 3502.24 M 4204.56 3497.73 L 4204.56 3502.24 M 4204.56 3497.73 L 4206.07 3497.73 L 4206.71 3497.95 L 4207.14 3498.38 L 4207.35 3498.81 L 4207.57 3499.45 L 4207.57 3500.52 L 4207.35 3501.17 L 4207.14 3501.6 L 4206.71 3502.03 L 4206.07 3502.24 L 4204.56 3502.24" fill="none"  stroke-width="0.8"  /></g><g c_partid="part_pcbtext" c_etype="pinpart" c_origin="4195,3492.5758" c_rotation="0" c_mirror="0" id="gge1021" locked="0" layerid="3" c_shapetype="group" ><path c_fontsize="4.724409448818897" c_fontfamily="" c_text="VCC" d="M 4195 3487.8058 L 4196.72 3492.3158 M 4198.44 3487.8058 L 4196.72 3492.3158 M 4203.07 3488.8858 L 4202.86 3488.4558 L 4202.43 3488.0258 L 4202 3487.8058 L 4201.14 3487.8058 L 4200.71 3488.0258 L 4200.28 3488.4558 L 4200.07 3488.8858 L 4199.85 3489.5258 L 4199.85 3490.5958 L 4200.07 3491.2458 L 4200.28 3491.6758 L 4200.71 3492.1058 L 4201.14 3492.3158 L 4202 3492.3158 L 4202.43 3492.1058 L 4202.86 3491.6758 L 4203.07 3491.2458 M 4207.71 3488.8858 L 4207.5 3488.4558 L 4207.07 3488.0258 L 4206.64 3487.8058 L 4205.78 3487.8058 L 4205.35 3488.0258 L 4204.92 3488.4558 L 4204.71 3488.8858 L 4204.49 3489.5258 L 4204.49 3490.5958 L 4204.71 3491.2458 L 4204.92 3491.6758 L 4205.35 3492.1058 L 4205.78 3492.3158 L 4206.64 3492.3158 L 4207.07 3492.1058 L 4207.5 3491.6758 L 4207.71 3491.2458" fill="none"  stroke-width="0.8"  /></g><g c_partid="part_pcbtext" c_etype="pinpart" c_origin="4195.5,3482.5" c_rotation="0" c_mirror="0" id="gge1020" locked="0" layerid="3" c_shapetype="group" ><path c_fontsize="4.724409448818897" c_fontfamily="" c_text="SDA" d="M 4198.51 3478.38 L 4198.08 3477.95 L 4197.43 3477.73 L 4196.57 3477.73 L 4195.93 3477.95 L 4195.5 3478.38 L 4195.5 3478.81 L 4195.71 3479.24 L 4195.93 3479.45 L 4196.36 3479.67 L 4197.65 3480.09 L 4198.08 3480.31 L 4198.29 3480.52 L 4198.51 3480.95 L 4198.51 3481.6 L 4198.08 3482.03 L 4197.43 3482.24 L 4196.57 3482.24 L 4195.93 3482.03 L 4195.5 3481.6 M 4199.92 3477.73 L 4199.92 3482.24 M 4199.92 3477.73 L 4201.43 3477.73 L 4202.07 3477.95 L 4202.5 3478.38 L 4202.72 3478.81 L 4202.93 3479.45 L 4202.93 3480.52 L 4202.72 3481.17 L 4202.5 3481.6 L 4202.07 3482.03 L 4201.43 3482.24 L 4199.92 3482.24 M 4206.07 3477.73 L 4204.35 3482.24 M 4206.07 3477.73 L 4207.78 3482.24 M 4204.99 3480.74 L 4207.14 3480.74" fill="none"  stroke-width="0.8"  /></g><g c_partid="part_pcbtext" c_etype="pinpart" c_origin="4195.5,3472.5" c_rotation="0" c_mirror="0" id="gge1019" locked="0" layerid="3" c_shapetype="group" ><path c_fontsize="4.724409448818897" c_fontfamily="" c_text="SCL" d="M 4198.51 3468.38 L 4198.08 3467.95 L 4197.43 3467.73 L 4196.57 3467.73 L 4195.93 3467.95 L 4195.5 3468.38 L 4195.5 3468.81 L 4195.71 3469.24 L 4195.93 3469.45 L 4196.36 3469.67 L 4197.65 3470.09 L 4198.08 3470.31 L 4198.29 3470.52 L 4198.51 3470.95 L 4198.51 3471.6 L 4198.08 3472.03 L 4197.43 3472.24 L 4196.57 3472.24 L 4195.93 3472.03 L 4195.5 3471.6 M 4203.14 3468.81 L 4202.93 3468.38 L 4202.5 3467.95 L 4202.07 3467.73 L 4201.21 3467.73 L 4200.78 3467.95 L 4200.35 3468.38 L 4200.14 3468.81 L 4199.92 3469.45 L 4199.92 3470.52 L 4200.14 3471.17 L 4200.35 3471.6 L 4200.78 3472.03 L 4201.21 3472.24 L 4202.07 3472.24 L 4202.5 3472.03 L 4202.93 3471.6 L 4203.14 3471.17 M 4204.56 3467.73 L 4204.56 3472.24 M 4204.56 3472.24 L 4207.14 3472.24" fill="none"  stroke-width="0.8"  /></g><g c_partid="part_pcbtext" c_etype="pinpart" c_origin="4032,3502.5379" c_rotation="0" c_mirror="0" id="gge1006" locked="0" layerid="3" c_shapetype="group" ><path c_fontsize="4.724409448818897" c_fontfamily="" c_text="GND" d="M 4035.22 3498.8479 L 4035.01 3498.4179 L 4034.58 3497.9879 L 4034.15 3497.7679 L 4033.29 3497.7679 L 4032.86 3497.9879 L 4032.43 3498.4179 L 4032.21 3498.8479 L 4032 3499.4879 L 4032 3500.5579 L 4032.21 3501.2079 L 4032.43 3501.6379 L 4032.86 3502.0679 L 4033.29 3502.2779 L 4034.15 3502.2779 L 4034.58 3502.0679 L 4035.01 3501.6379 L 4035.22 3501.2079 L 4035.22 3500.5579 M 4034.15 3500.5579 L 4035.22 3500.5579 M 4036.64 3497.7679 L 4036.64 3502.2779 M 4036.64 3497.7679 L 4039.64 3502.2779 M 4039.64 3497.7679 L 4039.64 3502.2779 M 4041.06 3497.7679 L 4041.06 3502.2779 M 4041.06 3497.7679 L 4042.57 3497.7679 L 4043.21 3497.9879 L 4043.64 3498.4179 L 4043.85 3498.8479 L 4044.07 3499.4879 L 4044.07 3500.5579 L 4043.85 3501.2079 L 4043.64 3501.6379 L 4043.21 3502.0679 L 4042.57 3502.2779 L 4041.06 3502.2779" fill="none"  stroke-width="0.8"  /></g><g c_partid="part_pcbtext" c_etype="pinpart" c_origin="4032,3492.5379" c_rotation="0" c_mirror="0" id="gge1002" locked="0" layerid="3" c_shapetype="group" ><path c_fontsize="4.724409448818897" c_fontfamily="" c_text="VCC" d="M 4032 3487.7679 L 4033.72 3492.2779 M 4035.44 3487.7679 L 4033.72 3492.2779 M 4040.07 3488.8479 L 4039.86 3488.4179 L 4039.43 3487.9879 L 4039 3487.7679 L 4038.14 3487.7679 L 4037.71 3487.9879 L 4037.28 3488.4179 L 4037.07 3488.8479 L 4036.85 3489.4879 L 4036.85 3490.5579 L 4037.07 3491.2079 L 4037.28 3491.6379 L 4037.71 3492.0679 L 4038.14 3492.2779 L 4039 3492.2779 L 4039.43 3492.0679 L 4039.86 3491.6379 L 4040.07 3491.2079 M 4044.71 3488.8479 L 4044.5 3488.4179 L 4044.07 3487.9879 L 4043.64 3487.7679 L 4042.78 3487.7679 L 4042.35 3487.9879 L 4041.92 3488.4179 L 4041.71 3488.8479 L 4041.49 3489.4879 L 4041.49 3490.5579 L 4041.71 3491.2079 L 4041.92 3491.6379 L 4042.35 3492.0679 L 4042.78 3492.2779 L 4043.64 3492.2779 L 4044.07 3492.0679 L 4044.5 3491.6379 L 4044.71 3491.2079" fill="none"  stroke-width="0.8"  /></g><g c_partid="part_pcbtext" c_etype="pinpart" c_origin="4032,3482.5" c_rotation="0" c_mirror="0" id="gge998" locked="0" layerid="3" c_shapetype="group" ><path c_fontsize="4.724409448818897" c_fontfamily="" c_text="SDA" d="M 4035.01 3478.38 L 4034.58 3477.95 L 4033.93 3477.73 L 4033.07 3477.73 L 4032.43 3477.95 L 4032 3478.38 L 4032 3478.81 L 4032.21 3479.24 L 4032.43 3479.45 L 4032.86 3479.67 L 4034.15 3480.09 L 4034.58 3480.31 L 4034.79 3480.52 L 4035.01 3480.95 L 4035.01 3481.6 L 4034.58 3482.03 L 4033.93 3482.24 L 4033.07 3482.24 L 4032.43 3482.03 L 4032 3481.6 M 4036.42 3477.73 L 4036.42 3482.24 M 4036.42 3477.73 L 4037.93 3477.73 L 4038.57 3477.95 L 4039 3478.38 L 4039.22 3478.81 L 4039.43 3479.45 L 4039.43 3480.52 L 4039.22 3481.17 L 4039 3481.6 L 4038.57 3482.03 L 4037.93 3482.24 L 4036.42 3482.24 M 4042.57 3477.73 L 4040.85 3482.24 M 4042.57 3477.73 L 4044.28 3482.24 M 4041.49 3480.74 L 4043.64 3480.74" fill="none"  stroke-width="0.8"  /></g><g c_partid="part_pcbtext" c_etype="pinpart" c_origin="4032,3472.5" c_rotation="0" c_mirror="0" id="gge991" locked="0" layerid="3" c_shapetype="group" ><path c_fontsize="4.724409448818897" c_fontfamily="" c_text="SCL" d="M 4035.01 3468.38 L 4034.58 3467.95 L 4033.93 3467.73 L 4033.07 3467.73 L 4032.43 3467.95 L 4032 3468.38 L 4032 3468.81 L 4032.21 3469.24 L 4032.43 3469.45 L 4032.86 3469.67 L 4034.15 3470.09 L 4034.58 3470.31 L 4034.79 3470.52 L 4035.01 3470.95 L 4035.01 3471.6 L 4034.58 3472.03 L 4033.93 3472.24 L 4033.07 3472.24 L 4032.43 3472.03 L 4032 3471.6 M 4039.64 3468.81 L 4039.43 3468.38 L 4039 3467.95 L 4038.57 3467.73 L 4037.71 3467.73 L 4037.28 3467.95 L 4036.85 3468.38 L 4036.64 3468.81 L 4036.42 3469.45 L 4036.42 3470.52 L 4036.64 3471.17 L 4036.85 3471.6 L 4037.28 3472.03 L 4037.71 3472.24 L 4038.57 3472.24 L 4039 3472.03 L 4039.43 3471.6 L 4039.64 3471.17 M 4041.06 3467.73 L 4041.06 3472.24 M 4041.06 3472.24 L 4043.64 3472.24" fill="none"  stroke-width="0.8"  /></g><g c_partid="part_pcbtext" c_etype="" c_origin="4071.5,3493.5988" c_rotation="90" c_mirror="" id="gge14364" locked="0" layerid="3" c_shapetype="group" display="none"><path c_fontsize="4.5" c_fontfamily="" c_text="1k" d="M 4067.78 3493.5988 L 4067.57 3493.1888 L 4066.96 3492.5788 L 4071.25 3492.5788 M 4066.96 3491.2288 L 4071.25 3491.2288 M 4068.39 3489.1788 L 4070.44 3491.2288 M 4069.62 3490.4088 L 4071.25 3488.9788" fill="none"  stroke-width="0.6" c_note="note_name" /></g><g c_partid="part_pcbtext" c_etype="" c_origin="4088.5,3490" c_rotation="180" c_mirror="" id="gge14366" locked="0" layerid="3" c_shapetype="group" ><path c_fontsize="4.5" c_fontfamily="" c_text="R5" d="M 4088.5 3494.54 L 4088.5 3490.25 M 4088.5 3494.54 L 4086.66 3494.54 L 4086.05 3494.34 L 4085.84 3494.13 L 4085.64 3493.72 L 4085.64 3493.31 L 4085.84 3492.9 L 4086.05 3492.7 L 4086.66 3492.5 L 4088.5 3492.5 M 4087.07 3492.5 L 4085.64 3490.25 M 4081.83 3494.54 L 4083.88 3494.54 L 4084.08 3492.7 L 4083.88 3492.9 L 4083.26 3493.11 L 4082.65 3493.11 L 4082.04 3492.9 L 4081.63 3492.5 L 4081.42 3491.88 L 4081.42 3491.47 L 4081.63 3490.86 L 4082.04 3490.45 L 4082.65 3490.25 L 4083.26 3490.25 L 4083.88 3490.45 L 4084.08 3490.65 L 4084.29 3491.06" fill="none"  stroke-width="0.6" c_note="note_pre" /></g><g c_partid="part_pcbtext" c_etype="" c_origin="4172.4788,3536.29" c_rotation="0" c_mirror="" id="gge13493" locked="0" layerid="3" c_shapetype="group" display="none"><path c_fontsize="4.5" c_fontfamily="" c_text="1k" d="M 4172.4788 3532.57 L 4172.8888 3532.36 L 4173.4988 3531.75 L 4173.4988 3536.04 M 4174.8488 3531.75 L 4174.8488 3536.04 M 4176.8988 3533.18 L 4174.8488 3535.23 M 4175.6688 3534.41 L 4177.0988 3536.04" fill="none"  stroke-width="0.6" c_note="note_name" /></g><g c_partid="part_pcbtext" c_etype="" c_origin="4173.965,3514.255" c_rotation="270" c_mirror="" id="gge13495" locked="0" layerid="3" c_shapetype="group" ><path c_fontsize="4.5" c_fontfamily="" c_text="R4" d="M 4178.505 3514.255 L 4174.215 3514.255 M 4178.505 3514.255 L 4178.505 3516.095 L 4178.305 3516.705 L 4178.095 3516.915 L 4177.685 3517.115 L 4177.275 3517.115 L 4176.865 3516.915 L 4176.665 3516.705 L 4176.465 3516.095 L 4176.465 3514.255 M 4176.465 3515.685 L 4174.215 3517.115 M 4178.505 3520.515 L 4175.645 3518.465 L 4175.645 3521.535 M 4178.505 3520.515 L 4174.215 3520.515" fill="none"  stroke-width="0.6" c_note="note_pre" /></g><g c_partid="part_pcbtext" c_etype="" c_origin="4061,3506.5988" c_rotation="90" c_mirror="" id="gge3" locked="0" layerid="3" c_shapetype="group" display="none"><path c_fontsize="4.5" c_fontfamily="" c_text="1k" d="M 4057.28 3506.5988 L 4057.07 3506.1888 L 4056.46 3505.5788 L 4060.75 3505.5788 M 4056.46 3504.2288 L 4060.75 3504.2288 M 4057.89 3502.1788 L 4059.94 3504.2288 M 4059.12 3503.4088 L 4060.75 3501.9788" fill="none"  stroke-width="0.6" c_note="note_name" /></g><g c_partid="part_pcbtext" c_etype="" c_origin="4070.5,3508.5" c_rotation="0" c_mirror="" id="gge5" locked="0" layerid="3" c_shapetype="group" ><path c_fontsize="4.5" c_fontfamily="" c_text="R3" d="M 4070.5 3503.96 L 4070.5 3508.25 M 4070.5 3503.96 L 4072.34 3503.96 L 4072.95 3504.16 L 4073.16 3504.37 L 4073.36 3504.78 L 4073.36 3505.19 L 4073.16 3505.6 L 4072.95 3505.8 L 4072.34 3506 L 4070.5 3506 M 4071.93 3506 L 4073.36 3508.25 M 4075.12 3503.96 L 4077.37 3503.96 L 4076.15 3505.6 L 4076.76 3505.6 L 4077.17 3505.8 L 4077.37 3506 L 4077.58 3506.62 L 4077.58 3507.03 L 4077.37 3507.64 L 4076.96 3508.05 L 4076.35 3508.25 L 4075.74 3508.25 L 4075.12 3508.05 L 4074.92 3507.85 L 4074.71 3507.44" fill="none"  stroke-width="0.6" c_note="note_pre" /></g><g c_partid="part_pcbtext" c_etype="" c_origin="4073.29,3484.0212" c_rotation="90" c_mirror="" id="gge27" locked="0" layerid="3" c_shapetype="group" display="none"><path c_fontsize="4.5" c_fontfamily="" c_text="1k" d="M 4069.57 3484.0212 L 4069.36 3483.6112 L 4068.75 3483.0012 L 4073.04 3483.0012 M 4068.75 3481.6512 L 4073.04 3481.6512 M 4070.18 3479.6012 L 4072.23 3481.6512 M 4071.41 3480.8312 L 4073.04 3479.4012" fill="none"  stroke-width="0.6" c_note="note_name" /></g><g c_partid="part_pcbtext" c_etype="" c_origin="4053.5,3493.5" c_rotation="270" c_mirror="" id="gge29" locked="0" layerid="3" c_shapetype="group" display="none"><path c_fontsize="4.5" c_fontfamily="" c_text="R2" d="M 4058.04 3493.5 L 4053.75 3493.5 M 4058.04 3493.5 L 4058.04 3495.34 L 4057.84 3495.95 L 4057.63 3496.16 L 4057.22 3496.36 L 4056.81 3496.36 L 4056.4 3496.16 L 4056.2 3495.95 L 4056 3495.34 L 4056 3493.5 M 4056 3494.93 L 4053.75 3496.36 M 4057.02 3497.92 L 4057.22 3497.92 L 4057.63 3498.12 L 4057.84 3498.33 L 4058.04 3498.74 L 4058.04 3499.55 L 4057.84 3499.96 L 4057.63 3500.17 L 4057.22 3500.37 L 4056.81 3500.37 L 4056.4 3500.17 L 4055.79 3499.76 L 4053.75 3497.71 L 4053.75 3500.58" fill="none"  stroke-width="0.6" c_note="note_pre" /></g><g c_partid="part_pcbtext" c_etype="" c_origin="4082.79,3484.0212" c_rotation="90" c_mirror="" id="gge51" locked="0" layerid="3" c_shapetype="group" display="none"><path c_fontsize="4.5" c_fontfamily="" c_text="1k" d="M 4079.07 3484.0212 L 4078.86 3483.6112 L 4078.25 3483.0012 L 4082.54 3483.0012 M 4078.25 3481.6512 L 4082.54 3481.6512 M 4079.68 3479.6012 L 4081.73 3481.6512 M 4080.91 3480.8312 L 4082.54 3479.4012" fill="none"  stroke-width="0.6" c_note="note_name" /></g><g c_partid="part_pcbtext" c_etype="" c_origin="4062,3493" c_rotation="270" c_mirror="" id="gge53" locked="0" layerid="3" c_shapetype="group" display="none"><path c_fontsize="4.5" c_fontfamily="" c_text="R1" d="M 4066.54 3493 L 4062.25 3493 M 4066.54 3493 L 4066.54 3494.84 L 4066.34 3495.45 L 4066.13 3495.66 L 4065.72 3495.86 L 4065.31 3495.86 L 4064.9 3495.66 L 4064.7 3495.45 L 4064.5 3494.84 L 4064.5 3493 M 4064.5 3494.43 L 4062.25 3495.86 M 4065.72 3497.21 L 4065.93 3497.62 L 4066.54 3498.24 L 4062.25 3498.24" fill="none"  stroke-width="0.6" c_note="note_pre" /></g><g c_partid="part_pcbtext" c_etype="" c_origin="4032.8801,3537.2503" c_rotation="90" c_mirror="" id="gge75" locked="0" layerid="3" c_shapetype="group" display="none"><path c_fontsize="4.5" c_fontfamily="" c_text="QWIIC" d="M 4028.3401 3536.0203 L 4028.5401 3536.4303 L 4028.9501 3536.8403 L 4029.3601 3537.0503 L 4029.9801 3537.2503 L 4031.0001 3537.2503 L 4031.6101 3537.0503 L 4032.0201 3536.8403 L 4032.4301 3536.4303 L 4032.6301 3536.0203 L 4032.6301 3535.2003 L 4032.4301 3534.8003 L 4032.0201 3534.3903 L 4031.6101 3534.1803 L 4031.0001 3533.9803 L 4029.9801 3533.9803 L 4029.3601 3534.1803 L 4028.9501 3534.3903 L 4028.5401 3534.8003 L 4028.3401 3535.2003 L 4028.3401 3536.0203 M 4031.8201 3535.4103 L 4033.0401 3534.1803 M 4028.3401 3532.6303 L 4032.6301 3531.6003 M 4028.3401 3530.5803 L 4032.6301 3531.6003 M 4028.3401 3530.5803 L 4032.6301 3529.5603 M 4028.3401 3528.5403 L 4032.6301 3529.5603 M 4028.3401 3527.1903 L 4032.6301 3527.1903 M 4028.3401 3525.8403 L 4032.6301 3525.8403 M 4029.3601 3521.4203 L 4028.9501 3521.6203 L 4028.5401 3522.0303 L 4028.3401 3522.4403 L 4028.3401 3523.2603 L 4028.5401 3523.6703 L 4028.9501 3524.0803 L 4029.3601 3524.2803 L 4029.9801 3524.4903 L 4031.0001 3524.4903 L 4031.6101 3524.2803 L 4032.0201 3524.0803 L 4032.4301 3523.6703 L 4032.6301 3523.2603 L 4032.6301 3522.4403 L 4032.4301 3522.0303 L 4032.0201 3521.6203 L 4031.6101 3521.4203" fill="none"  stroke-width="0.6" c_note="note_name" /></g><g c_partid="part_pcbtext" c_etype="" c_origin="4042,3528.5" c_rotation="270" c_mirror="" id="gge77" locked="0" layerid="3" c_shapetype="group" display="none"><path c_fontsize="4.5" c_fontfamily="" c_text="J2" d="M 4046.54 3530.55 L 4043.27 3530.55 L 4042.65 3530.34 L 4042.45 3530.14 L 4042.25 3529.73 L 4042.25 3529.32 L 4042.45 3528.91 L 4042.65 3528.7 L 4043.27 3528.5 L 4043.68 3528.5 M 4045.52 3532.1 L 4045.72 3532.1 L 4046.13 3532.3 L 4046.34 3532.51 L 4046.54 3532.92 L 4046.54 3533.74 L 4046.34 3534.15 L 4046.13 3534.35 L 4045.72 3534.55 L 4045.31 3534.55 L 4044.9 3534.35 L 4044.29 3533.94 L 4042.25 3531.9 L 4042.25 3534.76" fill="none"  stroke-width="0.6" c_note="note_pre" /></g><g c_partid="part_pcbtext" c_etype="" c_origin="4190.5,3530" c_rotation="90" c_mirror="" id="gge115" locked="0" layerid="3" c_shapetype="group" display="none"><path c_fontsize="4.5" c_fontfamily="" c_text="QWIIC PSTHR" d="M 4185.96 3528.77 L 4186.16 3529.18 L 4186.57 3529.59 L 4186.98 3529.8 L 4187.6 3530 L 4188.62 3530 L 4189.23 3529.8 L 4189.64 3529.59 L 4190.05 3529.18 L 4190.25 3528.77 L 4190.25 3527.95 L 4190.05 3527.55 L 4189.64 3527.14 L 4189.23 3526.93 L 4188.62 3526.73 L 4187.6 3526.73 L 4186.98 3526.93 L 4186.57 3527.14 L 4186.16 3527.55 L 4185.96 3527.95 L 4185.96 3528.77 M 4189.44 3528.16 L 4190.66 3526.93 M 4185.96 3525.38 L 4190.25 3524.35 M 4185.96 3523.33 L 4190.25 3524.35 M 4185.96 3523.33 L 4190.25 3522.31 M 4185.96 3521.29 L 4190.25 3522.31 M 4185.96 3519.94 L 4190.25 3519.94 M 4185.96 3518.59 L 4190.25 3518.59 M 4186.98 3514.17 L 4186.57 3514.37 L 4186.16 3514.78 L 4185.96 3515.19 L 4185.96 3516.01 L 4186.16 3516.42 L 4186.57 3516.83 L 4186.98 3517.03 L 4187.6 3517.24 L 4188.62 3517.24 L 4189.23 3517.03 L 4189.64 3516.83 L 4190.05 3516.42 L 4190.25 3516.01 L 4190.25 3515.19 L 4190.05 3514.78 L 4189.64 3514.37 L 4189.23 3514.17 M 4185.96 3509.67 L 4190.25 3509.67 M 4185.96 3509.67 L 4185.96 3507.83 L 4186.16 3507.21 L 4186.37 3507.01 L 4186.78 3506.8 L 4187.39 3506.8 L 4187.8 3507.01 L 4188 3507.21 L 4188.21 3507.83 L 4188.21 3509.67 M 4186.57 3502.59 L 4186.16 3503 L 4185.96 3503.61 L 4185.96 3504.43 L 4186.16 3505.05 L 4186.57 3505.45 L 4186.98 3505.45 L 4187.39 3505.25 L 4187.6 3505.05 L 4187.8 3504.64 L 4188.21 3503.41 L 4188.41 3503 L 4188.62 3502.8 L 4189.03 3502.59 L 4189.64 3502.59 L 4190.05 3503 L 4190.25 3503.61 L 4190.25 3504.43 L 4190.05 3505.05 L 4189.64 3505.45 M 4185.96 3499.81 L 4190.25 3499.81 M 4185.96 3501.24 L 4185.96 3498.38 M 4185.96 3497.03 L 4190.25 3497.03 M 4185.96 3494.16 L 4190.25 3494.16 M 4188 3497.03 L 4188 3494.16 M 4185.96 3492.81 L 4190.25 3492.81 M 4185.96 3492.81 L 4185.96 3490.97 L 4186.16 3490.36 L 4186.37 3490.15 L 4186.78 3489.95 L 4187.19 3489.95 L 4187.6 3490.15 L 4187.8 3490.36 L 4188 3490.97 L 4188 3492.81 M 4188 3491.38 L 4190.25 3489.95" fill="none"  stroke-width="0.6" c_note="note_name" /></g><g c_partid="part_pcbtext" c_etype="" c_origin="4197.5,3530" c_rotation="90" c_mirror="" id="gge117" locked="0" layerid="3" c_shapetype="group" display="none"><path c_fontsize="4.5" c_fontfamily="" c_text="J3" d="M 4192.96 3527.95 L 4196.23 3527.95 L 4196.85 3528.16 L 4197.05 3528.36 L 4197.25 3528.77 L 4197.25 3529.18 L 4197.05 3529.59 L 4196.85 3529.8 L 4196.23 3530 L 4195.82 3530 M 4192.96 3526.2 L 4192.96 3523.95 L 4194.6 3525.17 L 4194.6 3524.56 L 4194.8 3524.15 L 4195 3523.95 L 4195.62 3523.74 L 4196.03 3523.74 L 4196.64 3523.95 L 4197.05 3524.35 L 4197.25 3524.97 L 4197.25 3525.58 L 4197.05 3526.2 L 4196.85 3526.4 L 4196.44 3526.6" fill="none"  stroke-width="0.6" c_note="note_pre" /></g><g c_partid="part_pcbtext" c_etype="" c_origin="4082,3489.0002" c_rotation="90" c_mirror="" id="gge155" locked="0" layerid="3" c_shapetype="group" display="none"><path c_fontsize="4.5" c_fontfamily="" c_text="PCA9505" d="M 4077.46 3489.0002 L 4081.75 3489.0002 M 4077.46 3489.0002 L 4077.46 3487.1602 L 4077.66 3486.5502 L 4077.87 3486.3402 L 4078.28 3486.1402 L 4078.89 3486.1402 L 4079.3 3486.3402 L 4079.5 3486.5502 L 4079.71 3487.1602 L 4079.71 3489.0002 M 4078.48 3481.7202 L 4078.07 3481.9202 L 4077.66 3482.3302 L 4077.46 3482.7402 L 4077.46 3483.5602 L 4077.66 3483.9702 L 4078.07 3484.3802 L 4078.48 3484.5802 L 4079.1 3484.7902 L 4080.12 3484.7902 L 4080.73 3484.5802 L 4081.14 3484.3802 L 4081.55 3483.9702 L 4081.75 3483.5602 L 4081.75 3482.7402 L 4081.55 3482.3302 L 4081.14 3481.9202 L 4080.73 3481.7202 M 4077.46 3478.7302 L 4081.75 3480.3702 M 4077.46 3478.7302 L 4081.75 3477.1002 M 4080.32 3479.7502 L 4080.32 3477.7102 M 4078.89 3473.0902 L 4079.5 3473.2902 L 4079.91 3473.7002 L 4080.12 3474.3102 L 4080.12 3474.5202 L 4079.91 3475.1302 L 4079.5 3475.5402 L 4078.89 3475.7502 L 4078.69 3475.7502 L 4078.07 3475.5402 L 4077.66 3475.1302 L 4077.46 3474.5202 L 4077.46 3474.3102 L 4077.66 3473.7002 L 4078.07 3473.2902 L 4078.89 3473.0902 L 4079.91 3473.0902 L 4080.94 3473.2902 L 4081.55 3473.7002 L 4081.75 3474.3102 L 4081.75 3474.7202 L 4081.55 3475.3402 L 4081.14 3475.5402 M 4077.46 3469.2802 L 4077.46 3471.3302 L 4079.3 3471.5302 L 4079.1 3471.3302 L 4078.89 3470.7102 L 4078.89 3470.1002 L 4079.1 3469.4902 L 4079.5 3469.0802 L 4080.12 3468.8702 L 4080.53 3468.8702 L 4081.14 3469.0802 L 4081.55 3469.4902 L 4081.75 3470.1002 L 4081.75 3470.7102 L 4081.55 3471.3302 L 4081.35 3471.5302 L 4080.94 3471.7402 M 4077.46 3466.3002 L 4077.66 3466.9102 L 4078.28 3467.3202 L 4079.3 3467.5202 L 4079.91 3467.5202 L 4080.94 3467.3202 L 4081.55 3466.9102 L 4081.75 3466.3002 L 4081.75 3465.8902 L 4081.55 3465.2702 L 4080.94 3464.8602 L 4079.91 3464.6602 L 4079.3 3464.6602 L 4078.28 3464.8602 L 4077.66 3465.2702 L 4077.46 3465.8902 L 4077.46 3466.3002 M 4077.46 3460.8502 L 4077.46 3462.9002 L 4079.3 3463.1002 L 4079.1 3462.9002 L 4078.89 3462.2902 L 4078.89 3461.6702 L 4079.1 3461.0602 L 4079.5 3460.6502 L 4080.12 3460.4502 L 4080.53 3460.4502 L 4081.14 3460.6502 L 4081.55 3461.0602 L 4081.75 3461.6702 L 4081.75 3462.2902 L 4081.55 3462.9002 L 4081.35 3463.1002 L 4080.94 3463.3102" fill="none"  stroke-width="0.6" c_note="note_name" /></g><g c_partid="part_pcbtext" c_etype="" c_origin="4089.5,3509.5" c_rotation="90" c_mirror="" id="gge157" locked="0" layerid="3" c_shapetype="group" ><path c_fontsize="4.5" c_fontfamily="" c_text="U1" d="M 4084.96 3509.5 L 4088.03 3509.5 L 4088.64 3509.3 L 4089.05 3508.89 L 4089.25 3508.27 L 4089.25 3507.86 L 4089.05 3507.25 L 4088.64 3506.84 L 4088.03 3506.64 L 4084.96 3506.64 M 4085.78 3505.29 L 4085.57 3504.88 L 4084.96 3504.26 L 4089.25 3504.26" fill="none"  stroke-width="0.6" c_note="note_pre" /></g><g c_partid="part_pcbtext" c_etype="" c_origin="4030.5,3513.3734" c_rotation="0" c_mirror="" id="gge444" locked="0" layerid="3" c_shapetype="group" display="none"><path c_fontsize="4.5" c_fontfamily="" c_text="RESET" d="M 4030.5 3508.8334 L 4030.5 3513.1234 M 4030.5 3508.8334 L 4032.34 3508.8334 L 4032.95 3509.0334 L 4033.16 3509.2434 L 4033.36 3509.6534 L 4033.36 3510.0634 L 4033.16 3510.4734 L 4032.95 3510.6734 L 4032.34 3510.8734 L 4030.5 3510.8734 M 4031.93 3510.8734 L 4033.36 3513.1234 M 4034.71 3508.8334 L 4034.71 3513.1234 M 4034.71 3508.8334 L 4037.37 3508.8334 M 4034.71 3510.8734 L 4036.35 3510.8734 M 4034.71 3513.1234 L 4037.37 3513.1234 M 4041.59 3509.4434 L 4041.18 3509.0334 L 4040.56 3508.8334 L 4039.75 3508.8334 L 4039.13 3509.0334 L 4038.72 3509.4434 L 4038.72 3509.8534 L 4038.93 3510.2634 L 4039.13 3510.4734 L 4039.54 3510.6734 L 4040.77 3511.0834 L 4041.18 3511.2834 L 4041.38 3511.4934 L 4041.59 3511.9034 L 4041.59 3512.5134 L 4041.18 3512.9234 L 4040.56 3513.1234 L 4039.75 3513.1234 L 4039.13 3512.9234 L 4038.72 3512.5134 M 4042.94 3508.8334 L 4042.94 3513.1234 M 4042.94 3508.8334 L 4045.6 3508.8334 M 4042.94 3510.8734 L 4044.57 3510.8734 M 4042.94 3513.1234 L 4045.6 3513.1234 M 4048.38 3508.8334 L 4048.38 3513.1234 M 4046.95 3508.8334 L 4049.81 3508.8334" fill="none"  stroke-width="0.6" c_note="note_name" /></g><g c_partid="part_pcbtext" c_etype="" c_origin="4025,3504.4" c_rotation="0" c_mirror="" id="gge446" locked="0" layerid="3" c_shapetype="group" display="none"><path c_fontsize="4.5" c_fontfamily="" c_text="J6" d="M 4027.05 3499.86 L 4027.05 3503.13 L 4026.84 3503.75 L 4026.64 3503.95 L 4026.23 3504.15 L 4025.82 3504.15 L 4025.41 3503.95 L 4025.2 3503.75 L 4025 3503.13 L 4025 3502.72 M 4030.85 3500.47 L 4030.65 3500.06 L 4030.03 3499.86 L 4029.62 3499.86 L 4029.01 3500.06 L 4028.6 3500.68 L 4028.4 3501.7 L 4028.4 3502.72 L 4028.6 3503.54 L 4029.01 3503.95 L 4029.62 3504.15 L 4029.83 3504.15 L 4030.44 3503.95 L 4030.85 3503.54 L 4031.05 3502.93 L 4031.05 3502.72 L 4030.85 3502.11 L 4030.44 3501.7 L 4029.83 3501.5 L 4029.62 3501.5 L 4029.01 3501.7 L 4028.6 3502.11 L 4028.4 3502.72" fill="none"  stroke-width="0.6" c_note="note_pre" /></g><g c_partid="part_pcbtext" c_etype="" c_origin="4215,3497.4" c_rotation="0" c_mirror="" id="gge459" locked="0" layerid="3" c_shapetype="group" display="none"><path c_fontsize="4.5" c_fontfamily="" c_text="RESET PSTHR" d="M 4215 3492.86 L 4215 3497.15 M 4215 3492.86 L 4216.84 3492.86 L 4217.45 3493.06 L 4217.66 3493.27 L 4217.86 3493.68 L 4217.86 3494.09 L 4217.66 3494.5 L 4217.45 3494.7 L 4216.84 3494.9 L 4215 3494.9 M 4216.43 3494.9 L 4217.86 3497.15 M 4219.21 3492.86 L 4219.21 3497.15 M 4219.21 3492.86 L 4221.87 3492.86 M 4219.21 3494.9 L 4220.85 3494.9 M 4219.21 3497.15 L 4221.87 3497.15 M 4226.09 3493.47 L 4225.68 3493.06 L 4225.06 3492.86 L 4224.25 3492.86 L 4223.63 3493.06 L 4223.22 3493.47 L 4223.22 3493.88 L 4223.43 3494.29 L 4223.63 3494.5 L 4224.04 3494.7 L 4225.27 3495.11 L 4225.68 3495.31 L 4225.88 3495.52 L 4226.09 3495.93 L 4226.09 3496.54 L 4225.68 3496.95 L 4225.06 3497.15 L 4224.25 3497.15 L 4223.63 3496.95 L 4223.22 3496.54 M 4227.44 3492.86 L 4227.44 3497.15 M 4227.44 3492.86 L 4230.1 3492.86 M 4227.44 3494.9 L 4229.07 3494.9 M 4227.44 3497.15 L 4230.1 3497.15 M 4232.88 3492.86 L 4232.88 3497.15 M 4231.45 3492.86 L 4234.31 3492.86 M 4238.81 3492.86 L 4238.81 3497.15 M 4238.81 3492.86 L 4240.65 3492.86 L 4241.26 3493.06 L 4241.47 3493.27 L 4241.67 3493.68 L 4241.67 3494.29 L 4241.47 3494.7 L 4241.26 3494.9 L 4240.65 3495.11 L 4238.81 3495.11 M 4245.89 3493.47 L 4245.48 3493.06 L 4244.86 3492.86 L 4244.05 3492.86 L 4243.43 3493.06 L 4243.02 3493.47 L 4243.02 3493.88 L 4243.23 3494.29 L 4243.43 3494.5 L 4243.84 3494.7 L 4245.07 3495.11 L 4245.48 3495.31 L 4245.68 3495.52 L 4245.89 3495.93 L 4245.89 3496.54 L 4245.48 3496.95 L 4244.86 3497.15 L 4244.05 3497.15 L 4243.43 3496.95 L 4243.02 3496.54 M 4248.67 3492.86 L 4248.67 3497.15 M 4247.24 3492.86 L 4250.1 3492.86 M 4251.45 3492.86 L 4251.45 3497.15 M 4254.31 3492.86 L 4254.31 3497.15 M 4251.45 3494.9 L 4254.31 3494.9 M 4255.66 3492.86 L 4255.66 3497.15 M 4255.66 3492.86 L 4257.5 3492.86 L 4258.12 3493.06 L 4258.32 3493.27 L 4258.53 3493.68 L 4258.53 3494.09 L 4258.32 3494.5 L 4258.12 3494.7 L 4257.5 3494.9 L 4255.66 3494.9 M 4257.1 3494.9 L 4258.53 3497.15" fill="none"  stroke-width="0.6" c_note="note_name" /></g><g c_partid="part_pcbtext" c_etype="" c_origin="4215,3504.4" c_rotation="0" c_mirror="" id="gge461" locked="0" layerid="3" c_shapetype="group" display="none"><path c_fontsize="4.5" c_fontfamily="" c_text="J8" d="M 4217.05 3499.86 L 4217.05 3503.13 L 4216.84 3503.75 L 4216.64 3503.95 L 4216.23 3504.15 L 4215.82 3504.15 L 4215.41 3503.95 L 4215.2 3503.75 L 4215 3503.13 L 4215 3502.72 M 4219.42 3499.86 L 4218.8 3500.06 L 4218.6 3500.47 L 4218.6 3500.88 L 4218.8 3501.29 L 4219.21 3501.5 L 4220.03 3501.7 L 4220.65 3501.9 L 4221.05 3502.31 L 4221.26 3502.72 L 4221.26 3503.34 L 4221.05 3503.75 L 4220.85 3503.95 L 4220.24 3504.15 L 4219.42 3504.15 L 4218.8 3503.95 L 4218.6 3503.75 L 4218.4 3503.34 L 4218.4 3502.72 L 4218.6 3502.31 L 4219.01 3501.9 L 4219.62 3501.7 L 4220.44 3501.5 L 4220.85 3501.29 L 4221.05 3500.88 L 4221.05 3500.47 L 4220.85 3500.06 L 4220.24 3499.86 L 4219.42 3499.86" fill="none"  stroke-width="0.6" c_note="note_pre" /></g><g c_partid="part_pcbtext" c_etype="" c_origin="4156.5,3490.5" c_rotation="90" c_mirror="" id="gge474" locked="0" layerid="3" c_shapetype="group" display="none"><path c_fontsize="4.5" c_fontfamily="" c_text="I2C ADDRESS SEL" d="M 4151.96 3490.5 L 4156.25 3490.5 M 4152.98 3488.95 L 4152.78 3488.95 L 4152.37 3488.74 L 4152.16 3488.54 L 4151.96 3488.13 L 4151.96 3487.31 L 4152.16 3486.9 L 4152.37 3486.7 L 4152.78 3486.49 L 4153.19 3486.49 L 4153.6 3486.7 L 4154.21 3487.1 L 4156.25 3489.15 L 4156.25 3486.29 M 4152.98 3481.87 L 4152.57 3482.07 L 4152.16 3482.48 L 4151.96 3482.89 L 4151.96 3483.71 L 4152.16 3484.12 L 4152.57 3484.53 L 4152.98 3484.73 L 4153.6 3484.94 L 4154.62 3484.94 L 4155.23 3484.73 L 4155.64 3484.53 L 4156.05 3484.12 L 4156.25 3483.71 L 4156.25 3482.89 L 4156.05 3482.48 L 4155.64 3482.07 L 4155.23 3481.87 M 4151.96 3475.73 L 4156.25 3477.37 M 4151.96 3475.73 L 4156.25 3474.1 M 4154.82 3476.75 L 4154.82 3474.71 M 4151.96 3472.75 L 4156.25 3472.75 M 4151.96 3472.75 L 4151.96 3471.31 L 4152.16 3470.7 L 4152.57 3470.29 L 4152.98 3470.09 L 4153.6 3469.88 L 4154.62 3469.88 L 4155.23 3470.09 L 4155.64 3470.29 L 4156.05 3470.7 L 4156.25 3471.31 L 4156.25 3472.75 M 4151.96 3468.53 L 4156.25 3468.53 M 4151.96 3468.53 L 4151.96 3467.1 L 4152.16 3466.49 L 4152.57 3466.08 L 4152.98 3465.87 L 4153.6 3465.67 L 4154.62 3465.67 L 4155.23 3465.87 L 4155.64 3466.08 L 4156.05 3466.49 L 4156.25 3467.1 L 4156.25 3468.53 M 4151.96 3464.32 L 4156.25 3464.32 M 4151.96 3464.32 L 4151.96 3462.48 L 4152.16 3461.86 L 4152.37 3461.66 L 4152.78 3461.45 L 4153.19 3461.45 L 4153.6 3461.66 L 4153.8 3461.86 L 4154 3462.48 L 4154 3464.32 M 4154 3462.89 L 4156.25 3461.45 M 4151.96 3460.1 L 4156.25 3460.1 M 4151.96 3460.1 L 4151.96 3457.45 M 4154 3460.1 L 4154 3458.47 M 4156.25 3460.1 L 4156.25 3457.45 M 4152.57 3453.23 L 4152.16 3453.64 L 4151.96 3454.25 L 4151.96 3455.07 L 4152.16 3455.69 L 4152.57 3456.1 L 4152.98 3456.1 L 4153.39 3455.89 L 4153.6 3455.69 L 4153.8 3455.28 L 4154.21 3454.05 L 4154.41 3453.64 L 4154.62 3453.44 L 4155.03 3453.23 L 4155.64 3453.23 L 4156.05 3453.64 L 4156.25 3454.25 L 4156.25 3455.07 L 4156.05 3455.69 L 4155.64 3456.1 M 4152.57 3449.02 L 4152.16 3449.43 L 4151.96 3450.04 L 4151.96 3450.86 L 4152.16 3451.47 L 4152.57 3451.88 L 4152.98 3451.88 L 4153.39 3451.68 L 4153.6 3451.47 L 4153.8 3451.06 L 4154.21 3449.84 L 4154.41 3449.43 L 4154.62 3449.22 L 4155.03 3449.02 L 4155.64 3449.02 L 4156.05 3449.43 L 4156.25 3450.04 L 4156.25 3450.86 L 4156.05 3451.47 L 4155.64 3451.88 M 4152.57 3441.65 L 4152.16 3442.06 L 4151.96 3442.68 L 4151.96 3443.5 L 4152.16 3444.11 L 4152.57 3444.52 L 4152.98 3444.52 L 4153.39 3444.31 L 4153.6 3444.11 L 4153.8 3443.7 L 4154.21 3442.47 L 4154.41 3442.06 L 4154.62 3441.86 L 4155.03 3441.65 L 4155.64 3441.65 L 4156.05 3442.06 L 4156.25 3442.68 L 4156.25 3443.5 L 4156.05 3444.11 L 4155.64 3444.52 M 4151.96 3440.3 L 4156.25 3440.3 M 4151.96 3440.3 L 4151.96 3437.65 M 4154 3440.3 L 4154 3438.67 M 4156.25 3440.3 L 4156.25 3437.65 M 4151.96 3436.3 L 4156.25 3436.3 M 4156.25 3436.3 L 4156.25 3433.84" fill="none"  stroke-width="0.6" c_note="note_name" /></g><g c_partid="part_pcbtext" c_etype="" c_origin="4163.5,3490.5" c_rotation="90" c_mirror="" id="gge476" locked="0" layerid="3" c_shapetype="group" display="none"><path c_fontsize="4.5" c_fontfamily="" c_text="U2" d="M 4158.96 3490.5 L 4162.03 3490.5 L 4162.64 3490.3 L 4163.05 3489.89 L 4163.25 3489.27 L 4163.25 3488.86 L 4163.05 3488.25 L 4162.64 3487.84 L 4162.03 3487.64 L 4158.96 3487.64 M 4159.98 3486.08 L 4159.78 3486.08 L 4159.37 3485.88 L 4159.16 3485.67 L 4158.96 3485.26 L 4158.96 3484.45 L 4159.16 3484.04 L 4159.37 3483.83 L 4159.78 3483.63 L 4160.19 3483.63 L 4160.6 3483.83 L 4161.21 3484.24 L 4163.25 3486.29 L 4163.25 3483.42" fill="none"  stroke-width="0.6" c_note="note_pre" /></g><g c_partid="part_pcbtext" c_etype="pinpart" c_origin="4173,3507.5" c_rotation="90" c_mirror="0" id="gge548" locked="0" layerid="3" c_shapetype="group" ><path c_fontsize="1.9685" c_fontfamily="" c_text="+" d="M 4171.279 3506.698 L 4172.889 3506.698 M 4172.089 3507.498 L 4172.089 3505.888" fill="none"  stroke-width="0.3937"  /></g><g c_partid="part_pcbtext" c_etype="pinpart" c_origin="4172.988,3472.965" c_rotation="90" c_mirror="0" id="gge550" locked="0" layerid="3" c_shapetype="group" ><path c_fontsize="1.9685" c_fontfamily="" c_text="+" d="M 4171.273 3472.163L4172.883 3472.163 M 4172.073 3472.963L4172.073 3471.353 " fill="none"  stroke-width="0.3937"  /></g><g c_partid="part_pcbtext" c_etype="pinpart" c_origin="4181.5,3507.5" c_rotation="90" c_mirror="0" id="gge552" locked="0" layerid="3" c_shapetype="group" ><path c_fontsize="1.9685" c_fontfamily="" c_text="-" d="M 4180.586 3507.5 L 4180.586 3505.89" fill="none"  stroke-width="0.3937"  /></g><g c_partid="part_pcbtext" c_etype="pinpart" c_origin="4181.65,3472.965" c_rotation="90" c_mirror="0" id="gge554" locked="0" layerid="3" c_shapetype="group" ><path c_fontsize="1.9685" c_fontfamily="" c_text="-" d="M 4180.735 3472.965L4180.735 3471.355 " fill="none"  stroke-width="0.3937"  /></g><g c_partid="part_pcbtext" c_etype="pinpart" c_origin="4189.5,3504.5" c_rotation="90" c_mirror="0" id="gge556" locked="0" layerid="3" c_shapetype="group" ><path c_fontsize="3.937007874015748" c_fontfamily="" c_text="A0" d="M 4185.529 3503.072 L 4189.289 3504.502 M 4185.529 3503.072 L 4189.289 3501.632 M 4188.029 3503.962 L 4188.029 3502.172 M 4185.529 3499.382 L 4185.709 3499.922 L 4186.239 3500.272 L 4187.139 3500.452 L 4187.679 3500.452 L 4188.569 3500.272 L 4189.109 3499.922 L 4189.289 3499.382 L 4189.289 3499.022 L 4189.109 3498.492 L 4188.569 3498.132 L 4187.679 3497.952 L 4187.139 3497.952 L 4186.239 3498.132 L 4185.709 3498.492 L 4185.529 3499.022 L 4185.529 3499.382" fill="none"  stroke-width="0.5906"  /></g><g c_partid="part_pcbtext" c_etype="pinpart" c_origin="4189.5,3481" c_rotation="90" c_mirror="0" id="gge558" locked="0" layerid="3" c_shapetype="group" ><path c_fontsize="3.937007874015748" c_fontfamily="" c_text="A2" d="M 4185.529 3479.564 L 4189.289 3481.004 M 4185.529 3479.564 L 4189.289 3478.134 M 4188.029 3480.464 L 4188.029 3478.674 M 4186.419 3476.774 L 4186.239 3476.774 L 4185.889 3476.594 L 4185.709 3476.414 L 4185.529 3476.064 L 4185.529 3475.344 L 4185.709 3474.984 L 4185.889 3474.804 L 4186.239 3474.634 L 4186.599 3474.634 L 4186.959 3474.804 L 4187.499 3475.164 L 4189.289 3476.954 L 4189.289 3474.454" fill="none"  stroke-width="0.5906"  /></g><g c_partid="part_pcbtext" c_etype="pinpart" c_origin="4189.5,3492" c_rotation="90" c_mirror="0" id="gge560" locked="0" layerid="3" c_shapetype="group" ><path c_fontsize="3.937007874015748" c_fontfamily="" c_text="A1" d="M 4185.524 3490.57 L 4189.284 3492 M 4185.524 3490.57 L 4189.284 3489.14 M 4188.034 3491.46 L 4188.034 3489.67 M 4186.244 3487.96 L 4186.064 3487.6 L 4185.524 3487.06 L 4189.284 3487.06" fill="none"  stroke-width="0.5906"  /></g><g c_partid="part_pcbtext" c_etype="" c_origin="4061.29,3515.51" c_rotation="90" c_mirror="" id="gge564" locked="0" layerid="3" c_shapetype="group" display="none"><path c_fontsize="4.5" c_fontfamily="" c_text="CTRLS" d="M 4057.77 3512.44 L 4057.36 3512.65 L 4056.95 3513.06 L 4056.75 3513.46 L 4056.75 3514.28 L 4056.95 3514.69 L 4057.36 3515.1 L 4057.77 3515.31 L 4058.39 3515.51 L 4059.41 3515.51 L 4060.02 3515.31 L 4060.43 3515.1 L 4060.84 3514.69 L 4061.04 3514.28 L 4061.04 3513.46 L 4060.84 3513.06 L 4060.43 3512.65 L 4060.02 3512.44 M 4056.75 3509.66 L 4061.04 3509.66 M 4056.75 3511.09 L 4056.75 3508.23 M 4056.75 3506.88 L 4061.04 3506.88 M 4056.75 3506.88 L 4056.75 3505.04 L 4056.95 3504.42 L 4057.16 3504.22 L 4057.57 3504.01 L 4057.98 3504.01 L 4058.39 3504.22 L 4058.59 3504.42 L 4058.79 3505.04 L 4058.79 3506.88 M 4058.79 3505.45 L 4061.04 3504.01 M 4056.75 3502.66 L 4061.04 3502.66 M 4061.04 3502.66 L 4061.04 3500.21 M 4057.36 3496 L 4056.95 3496.41 L 4056.75 3497.02 L 4056.75 3497.84 L 4056.95 3498.45 L 4057.36 3498.86 L 4057.77 3498.86 L 4058.18 3498.66 L 4058.39 3498.45 L 4058.59 3498.04 L 4059 3496.81 L 4059.2 3496.41 L 4059.41 3496.2 L 4059.82 3496 L 4060.43 3496 L 4060.84 3496.41 L 4061.04 3497.02 L 4061.04 3497.84 L 4060.84 3498.45 L 4060.43 3498.86" fill="none"  stroke-width="0.6" c_note="note_name" /></g><g c_partid="part_pcbtext" c_etype="" c_origin="4056,3504.5" c_rotation="270" c_mirror="" id="gge566" locked="0" layerid="3" c_shapetype="group" display="none"><path c_fontsize="4.5" c_fontfamily="" c_text="J7" d="M 4060.54 3506.55 L 4057.27 3506.55 L 4056.65 3506.34 L 4056.45 3506.14 L 4056.25 3505.73 L 4056.25 3505.32 L 4056.45 3504.91 L 4056.65 3504.7 L 4057.27 3504.5 L 4057.68 3504.5 M 4060.54 3510.76 L 4056.25 3508.71 M 4060.54 3507.9 L 4060.54 3510.76" fill="none"  stroke-width="0.6" c_note="note_pre" /></g><g c_partid="part_pcbtext" c_etype="" c_origin="4070.5,3474.5" c_rotation="0" c_mirror="" id="gge584" locked="0" layerid="3" c_shapetype="group" ><path c_fontsize="4.5" c_fontfamily="" c_text="POW" d="M 4070.5 3469.96 L 4070.5 3474.25 M 4070.5 3469.96 L 4072.34 3469.96 L 4072.95 3470.16 L 4073.16 3470.37 L 4073.36 3470.78 L 4073.36 3471.39 L 4073.16 3471.8 L 4072.95 3472 L 4072.34 3472.21 L 4070.5 3472.21 M 4075.94 3469.96 L 4075.53 3470.16 L 4075.12 3470.57 L 4074.92 3470.98 L 4074.71 3471.6 L 4074.71 3472.62 L 4074.92 3473.23 L 4075.12 3473.64 L 4075.53 3474.05 L 4075.94 3474.25 L 4076.76 3474.25 L 4077.17 3474.05 L 4077.58 3473.64 L 4077.78 3473.23 L 4077.99 3472.62 L 4077.99 3471.6 L 4077.78 3470.98 L 4077.58 3470.57 L 4077.17 3470.16 L 4076.76 3469.96 L 4075.94 3469.96 M 4079.34 3469.96 L 4080.36 3474.25 M 4081.38 3469.96 L 4080.36 3474.25 M 4081.38 3469.96 L 4082.4 3474.25 M 4083.43 3469.96 L 4082.4 3474.25" fill="none"  stroke-width="0.6" c_note="note_name" /></g><g c_partid="part_pcbtext" c_etype="" c_origin="4081,3485.7995" c_rotation="270" c_mirror="" id="gge586" locked="0" layerid="3" c_shapetype="group" display="none"><path c_fontsize="4.5" c_fontfamily="" c_text="LED5" d="M 4085.54 3485.7995 L 4081.25 3485.7995 M 4081.25 3485.7995 L 4081.25 3488.2495 M 4085.54 3489.5995 L 4081.25 3489.5995 M 4085.54 3489.5995 L 4085.54 3492.2595 M 4083.5 3489.5995 L 4083.5 3491.2395 M 4081.25 3489.5995 L 4081.25 3492.2595 M 4085.54 3493.6095 L 4081.25 3493.6095 M 4085.54 3493.6095 L 4085.54 3495.0495 L 4085.34 3495.6595 L 4084.93 3496.0695 L 4084.52 3496.2695 L 4083.9 3496.4795 L 4082.88 3496.4795 L 4082.27 3496.2695 L 4081.86 3496.0695 L 4081.45 3495.6595 L 4081.25 3495.0495 L 4081.25 3493.6095 M 4085.54 3500.2795 L 4085.54 3498.2395 L 4083.7 3498.0295 L 4083.9 3498.2395 L 4084.11 3498.8495 L 4084.11 3499.4595 L 4083.9 3500.0795 L 4083.5 3500.4895 L 4082.88 3500.6895 L 4082.47 3500.6895 L 4081.86 3500.4895 L 4081.45 3500.0795 L 4081.25 3499.4595 L 4081.25 3498.8495 L 4081.45 3498.2395 L 4081.65 3498.0295 L 4082.06 3497.8295" fill="none"  stroke-width="0.6" c_note="note_pre" /></g><g c_partid="part_pcbtext" c_etype="" c_origin="4017.5,3487.4468" c_rotation="90" c_mirror="" id="gge612" locked="0" layerid="3" c_shapetype="group" display="none"><path c_fontsize="4.5" c_fontfamily="" c_text="I2C" d="M 4012.96 3487.4468 L 4017.25 3487.4468 M 4013.98 3485.8968 L 4013.78 3485.8968 L 4013.37 3485.6868 L 4013.16 3485.4868 L 4012.96 3485.0768 L 4012.96 3484.2568 L 4013.16 3483.8468 L 4013.37 3483.6468 L 4013.78 3483.4368 L 4014.19 3483.4368 L 4014.6 3483.6468 L 4015.21 3484.0468 L 4017.25 3486.0968 L 4017.25 3483.2368 M 4013.98 3478.8168 L 4013.57 3479.0168 L 4013.16 3479.4268 L 4012.96 3479.8368 L 4012.96 3480.6568 L 4013.16 3481.0668 L 4013.57 3481.4768 L 4013.98 3481.6768 L 4014.6 3481.8868 L 4015.62 3481.8868 L 4016.23 3481.6768 L 4016.64 3481.4768 L 4017.05 3481.0668 L 4017.25 3480.6568 L 4017.25 3479.8368 L 4017.05 3479.4268 L 4016.64 3479.0168 L 4016.23 3478.8168" fill="none"  stroke-width="0.6" c_note="note_name" /></g><g c_partid="part_pcbtext" c_etype="" c_origin="4019,3485" c_rotation="90" c_mirror="" id="gge614" locked="0" layerid="3" c_shapetype="group" display="none"><path c_fontsize="4.5" c_fontfamily="" c_text="J1" d="M 4014.46 3482.95 L 4017.73 3482.95 L 4018.35 3483.16 L 4018.55 3483.36 L 4018.75 3483.77 L 4018.75 3484.18 L 4018.55 3484.59 L 4018.35 3484.8 L 4017.73 3485 L 4017.32 3485 M 4015.28 3481.6 L 4015.07 3481.2 L 4014.46 3480.58 L 4018.75 3480.58" fill="none"  stroke-width="0.6" c_note="note_pre" /></g><g c_partid="part_pcbtext" c_etype="" c_origin="4202,3485" c_rotation="90" c_mirror="" id="gge642" locked="0" layerid="3" c_shapetype="group" display="none"><path c_fontsize="4.5" c_fontfamily="" c_text="I2C PSTHR" d="M 4197.46 3485 L 4201.75 3485 M 4198.48 3483.45 L 4198.28 3483.45 L 4197.87 3483.24 L 4197.66 3483.04 L 4197.46 3482.63 L 4197.46 3481.81 L 4197.66 3481.4 L 4197.87 3481.2 L 4198.28 3480.99 L 4198.69 3480.99 L 4199.1 3481.2 L 4199.71 3481.6 L 4201.75 3483.65 L 4201.75 3480.79 M 4198.48 3476.37 L 4198.07 3476.57 L 4197.66 3476.98 L 4197.46 3477.39 L 4197.46 3478.21 L 4197.66 3478.62 L 4198.07 3479.03 L 4198.48 3479.23 L 4199.1 3479.44 L 4200.12 3479.44 L 4200.73 3479.23 L 4201.14 3479.03 L 4201.55 3478.62 L 4201.75 3478.21 L 4201.75 3477.39 L 4201.55 3476.98 L 4201.14 3476.57 L 4200.73 3476.37 M 4197.46 3471.87 L 4201.75 3471.87 M 4197.46 3471.87 L 4197.46 3470.03 L 4197.66 3469.41 L 4197.87 3469.21 L 4198.28 3469 L 4198.89 3469 L 4199.3 3469.21 L 4199.5 3469.41 L 4199.71 3470.03 L 4199.71 3471.87 M 4198.07 3464.79 L 4197.66 3465.2 L 4197.46 3465.81 L 4197.46 3466.63 L 4197.66 3467.25 L 4198.07 3467.65 L 4198.48 3467.65 L 4198.89 3467.45 L 4199.1 3467.25 L 4199.3 3466.84 L 4199.71 3465.61 L 4199.91 3465.2 L 4200.12 3465 L 4200.53 3464.79 L 4201.14 3464.79 L 4201.55 3465.2 L 4201.75 3465.81 L 4201.75 3466.63 L 4201.55 3467.25 L 4201.14 3467.65 M 4197.46 3462.01 L 4201.75 3462.01 M 4197.46 3463.44 L 4197.46 3460.58 M 4197.46 3459.23 L 4201.75 3459.23 M 4197.46 3456.36 L 4201.75 3456.36 M 4199.5 3459.23 L 4199.5 3456.36 M 4197.46 3455.01 L 4201.75 3455.01 M 4197.46 3455.01 L 4197.46 3453.17 L 4197.66 3452.56 L 4197.87 3452.35 L 4198.28 3452.15 L 4198.69 3452.15 L 4199.1 3452.35 L 4199.3 3452.56 L 4199.5 3453.17 L 4199.5 3455.01 M 4199.5 3453.58 L 4201.75 3452.15" fill="none"  stroke-width="0.6" c_note="note_name" /></g><g c_partid="part_pcbtext" c_etype="" c_origin="4209,3485" c_rotation="90" c_mirror="" id="gge644" locked="0" layerid="3" c_shapetype="group" display="none"><path c_fontsize="4.5" c_fontfamily="" c_text="J4" d="M 4204.46 3482.95 L 4207.73 3482.95 L 4208.35 3483.16 L 4208.55 3483.36 L 4208.75 3483.77 L 4208.75 3484.18 L 4208.55 3484.59 L 4208.35 3484.8 L 4207.73 3485 L 4207.32 3485 M 4204.46 3479.56 L 4207.32 3481.6 L 4207.32 3478.54 M 4204.46 3479.56 L 4208.75 3479.56" fill="none"  stroke-width="0.6" c_note="note_pre" /></g><g c_partid="part_pcbtext" c_etype="" c_origin="4120,3432" c_rotation="0" c_mirror="" id="gge672" locked="0" layerid="3" c_shapetype="group" display="none"><path c_fontsize="4.5" c_fontfamily="" c_text="HDR-F-2.54_2x20" d="M 4120 3427.46 L 4120 3431.75 M 4122.86 3427.46 L 4122.86 3431.75 M 4120 3429.5 L 4122.86 3429.5 M 4124.21 3427.46 L 4124.21 3431.75 M 4124.21 3427.46 L 4125.65 3427.46 L 4126.26 3427.66 L 4126.67 3428.07 L 4126.87 3428.48 L 4127.08 3429.1 L 4127.08 3430.12 L 4126.87 3430.73 L 4126.67 3431.14 L 4126.26 3431.55 L 4125.65 3431.75 L 4124.21 3431.75 M 4128.43 3427.46 L 4128.43 3431.75 M 4128.43 3427.46 L 4130.27 3427.46 L 4130.88 3427.66 L 4131.09 3427.87 L 4131.29 3428.28 L 4131.29 3428.69 L 4131.09 3429.1 L 4130.88 3429.3 L 4130.27 3429.5 L 4128.43 3429.5 M 4129.86 3429.5 L 4131.29 3431.75 M 4132.64 3429.91 L 4136.32 3429.91 M 4137.67 3427.46 L 4137.67 3431.75 M 4137.67 3427.46 L 4140.33 3427.46 M 4137.67 3429.5 L 4139.31 3429.5 M 4141.68 3429.91 L 4145.36 3429.91 M 4146.92 3428.48 L 4146.92 3428.28 L 4147.12 3427.87 L 4147.33 3427.66 L 4147.74 3427.46 L 4148.55 3427.46 L 4148.96 3427.66 L 4149.17 3427.87 L 4149.37 3428.28 L 4149.37 3428.69 L 4149.17 3429.1 L 4148.76 3429.71 L 4146.71 3431.75 L 4149.58 3431.75 M 4151.13 3430.73 L 4150.93 3430.94 L 4151.13 3431.14 L 4151.34 3430.94 L 4151.13 3430.73 M 4155.14 3427.46 L 4153.1 3427.46 L 4152.89 3429.3 L 4153.1 3429.1 L 4153.71 3428.89 L 4154.32 3428.89 L 4154.94 3429.1 L 4155.35 3429.5 L 4155.55 3430.12 L 4155.55 3430.53 L 4155.35 3431.14 L 4154.94 3431.55 L 4154.32 3431.75 L 4153.71 3431.75 L 4153.1 3431.55 L 4152.89 3431.35 L 4152.69 3430.94 M 4158.95 3427.46 L 4156.9 3430.32 L 4159.97 3430.32 M 4158.95 3427.46 L 4158.95 3431.75 M 4161.32 3433.19 L 4165 3433.19 M 4166.55 3428.48 L 4166.55 3428.28 L 4166.76 3427.87 L 4166.96 3427.66 L 4167.37 3427.46 L 4168.19 3427.46 L 4168.6 3427.66 L 4168.8 3427.87 L 4169.01 3428.28 L 4169.01 3428.69 L 4168.8 3429.1 L 4168.4 3429.71 L 4166.35 3431.75 L 4169.21 3431.75 M 4170.56 3428.89 L 4172.81 3431.75 M 4172.81 3428.89 L 4170.56 3431.75 M 4174.37 3428.48 L 4174.37 3428.28 L 4174.57 3427.87 L 4174.78 3427.66 L 4175.19 3427.46 L 4176 3427.46 L 4176.41 3427.66 L 4176.62 3427.87 L 4176.82 3428.28 L 4176.82 3428.69 L 4176.62 3429.1 L 4176.21 3429.71 L 4174.16 3431.75 L 4177.03 3431.75 M 4179.6 3427.46 L 4178.99 3427.66 L 4178.58 3428.28 L 4178.38 3429.3 L 4178.38 3429.91 L 4178.58 3430.94 L 4178.99 3431.55 L 4179.6 3431.75 L 4180.01 3431.75 L 4180.63 3431.55 L 4181.04 3430.94 L 4181.24 3429.91 L 4181.24 3429.3 L 4181.04 3428.28 L 4180.63 3427.66 L 4180.01 3427.46 L 4179.6 3427.46" fill="none"  stroke-width="0.6" c_note="note_name" /></g><g c_partid="part_pcbtext" c_etype="" c_origin="4120,3439" c_rotation="0" c_mirror="" id="gge674" locked="0" layerid="3" c_shapetype="group" display="none"><path c_fontsize="4.5" c_fontfamily="" c_text="H1" d="M 4120 3434.46 L 4120 3438.75 M 4122.86 3434.46 L 4122.86 3438.75 M 4120 3436.5 L 4122.86 3436.5 M 4124.21 3435.28 L 4124.62 3435.07 L 4125.24 3434.46 L 4125.24 3438.75" fill="none"  stroke-width="0.6" c_note="note_pre" /></g><path d="M 4039.335 3520.002 A 0.557 0.557 0 1 0 4038.97 3519.865" locked="0"  fill="none" stroke-width="1.575" c_helper_type="arc2" net="" layerid="3" id="gge82" /><path d="M 4200.165 3538.498 A 0.557 0.557 0 1 0 4200.53 3538.635" locked="0"  fill="none" stroke-width="1.575" c_helper_type="arc2" net="" layerid="3" id="gge122" /><path d="M 4090.87 3504.94 A 0.5906 0.5906 0 1 0 4090.88 3504.94" locked="0"  fill="none" stroke-width="1.1811" c_helper_type="arc2" net="" layerid="3" id="gge159" /><path d="M 4095.2 3496.09 A 0.7874 0.7874 0 1 0 4095.21 3496.09" locked="0"  fill="none" stroke-width="1.5748" c_helper_type="arc2" net="" layerid="3" id="gge160" /><path d="M 4169 3504.311 A 1 1 0 0 0 4170 3505.311" locked="0"  fill="none" stroke-width="0.8" c_helper_type="arc2" net="" layerid="3" id="gge490" /><path d="M 4183.5159 3505.3111 A 0.9141 0.9141 0 0 0 4184.4096 3504.3111" locked="0"  fill="none" stroke-width="0.8" c_helper_type="arc2" net="" layerid="3" id="gge491" /><path d="M 4183.4096 3497.3111 A 1 1 0 0 1 4184.4096 3498.3111" locked="0"  fill="none" stroke-width="0.8" c_helper_type="arc2" net="" layerid="3" id="gge492" /><path d="M 4169 3498.311 A 1 1 0 0 1 4170 3497.311" locked="0"  fill="none" stroke-width="0.8" c_helper_type="arc2" net="" layerid="3" id="gge493" /><path d="M 4169 3492.5 A 1 1 0 0 0 4170 3493.5" locked="0"  fill="none" stroke-width="0.8" c_helper_type="arc2" net="" layerid="3" id="gge494" /><path d="M 4169 3486.5 A 1 1 0 0 1 4170 3485.5" locked="0"  fill="none" stroke-width="0.8" c_helper_type="arc2" net="" layerid="3" id="gge495" /><path d="M 4183.4096 3485.5001 A 1 1 0 0 1 4184.4096 3486.5001" locked="0"  fill="none" stroke-width="0.8" c_helper_type="arc2" net="" layerid="3" id="gge496" /><path d="M 4183.5159 3493.5001 A 0.9141 0.9141 0 0 0 4184.4096 3492.5001" locked="0"  fill="none" stroke-width="0.8" c_helper_type="arc2" net="" layerid="3" id="gge497" /><path d="M 4169 3480.689 A 1 1 0 0 0 4170 3481.689" locked="0"  fill="none" stroke-width="0.8" c_helper_type="arc2" net="" layerid="3" id="gge498" /><path d="M 4169 3474.689 A 1 1 0 0 1 4170 3473.689" locked="0"  fill="none" stroke-width="0.8" c_helper_type="arc2" net="" layerid="3" id="gge499" /><path d="M 4183.5159 3481.6891 A 0.9141 0.9141 0 0 0 4184.4096 3480.6891" locked="0"  fill="none" stroke-width="0.8" c_helper_type="arc2" net="" layerid="3" id="gge500" /><path d="M 4183.4096 3473.6891 A 1 1 0 0 1 4184.4096 3474.6891" locked="0"  fill="none" stroke-width="0.8" c_helper_type="arc2" net="" layerid="3" id="gge501" /><path d="M 4077.6496 3486.8938 L 4071.3504 3486.8938 L 4071.3504 3487.6812 L 4077.6496 3487.6812 Z " stroke-width="0"   net="" type="solid" layerid="3" id="gge596" locked="0" c_teardrop="" c_targetpad="" c_targetwire="" /><path d="M 4074.5 3484.9253 L 4074.8937 3484.9253 L 4074.8937 3487.2875 L 4074.1063 3487.2875 L 4074.1063 3484.9253 Z " stroke-width="0"   net="" type="solid" layerid="3" id="gge597" locked="0" c_teardrop="" c_targetpad="" c_targetwire="" /><polyline points="4020 3440 4220 3440 4220 3543 4020 3543 4020 3440" stroke-width="1"  stroke-linecap="round" fill="none" layerid="10" net="" id="gge962" locked="0" /></svg>